<svg width="315" height="885" viewBox="0 0 315 885" fill="none" xmlns="http://www.w3.org/2000/svg">
<path fill-rule="evenodd" clip-rule="evenodd" d="M47.8493 673.505L47.8451 673.497C16.5709 606.938 0.950195 529.188 0.950195 440.271C0.950195 351.355 16.5707 274.002 47.8471 208.242L47.8514 208.233C79.9392 142.453 127.679 91.5027 191.055 55.4027C255.245 18.4942 335.428 0.0712891 431.55 0.0712891C522.882 0.0712891 600.264 18.4979 663.649 55.4047C727.023 91.5045 775.159 142.852 808.045 209.424C840.927 275.189 857.35 352.548 857.35 441.471C857.35 530.395 840.927 608.152 808.047 674.714L808.045 674.719C775.156 740.495 726.618 791.841 662.449 828.738C599.063 865.645 521.682 884.071 430.35 884.071C334.227 884.071 254.44 865.648 191.047 828.735C127.673 791.834 79.9353 740.084 47.8493 673.505ZM661.95 827.871C725.95 791.071 774.35 739.871 807.15 674.271C839.95 607.871 856.35 530.271 856.35 441.471C856.35 352.671 839.95 275.471 807.15 209.871C774.35 143.471 726.35 92.2713 663.15 56.2713C599.95 19.4713 522.75 1.07129 431.55 1.07129C335.55 1.07129 255.55 19.4713 191.55 56.2713C128.35 92.2713 80.7502 143.071 48.7502 208.671C17.5502 274.271 1.9502 351.471 1.9502 440.271C1.9502 529.071 17.5502 606.671 48.7502 673.071C80.7502 739.471 128.35 791.071 191.55 827.871C254.75 864.671 334.35 883.071 430.35 883.071C521.55 883.071 598.75 864.671 661.95 827.871ZM565.027 109.454L565.023 109.446C551.473 75.9691 533.578 51.7556 511.389 36.6987L511.382 36.694L511.375 36.6891C489.976 21.6308 463.389 14.0713 431.55 14.0713C398.912 14.0713 371.113 21.6311 348.105 36.7031C325.914 51.7635 307.621 75.9812 293.272 109.459C279.723 142.138 269.738 186.033 263.344 241.182C257.749 295.535 254.95 362.296 254.95 441.471C254.95 520.646 257.749 587.808 263.344 642.962C269.738 698.104 279.721 742.4 293.272 775.882C307.619 808.558 325.913 832.38 348.112 847.444C370.314 862.51 397.707 870.071 430.35 870.071C462.187 870.071 489.183 862.512 511.389 847.444C533.583 832.384 551.477 808.566 565.025 775.893C578.575 742.415 588.161 698.119 593.755 642.97L593.756 642.963L593.757 642.956C600.151 587.807 603.35 520.648 603.35 441.471C603.35 362.295 600.151 295.536 593.757 241.188L593.756 241.18L593.755 241.172C588.16 186.021 578.574 142.128 565.027 109.454ZM565.95 776.271C552.35 809.071 534.35 833.071 511.95 848.271C489.55 863.471 462.35 871.071 430.35 871.071C397.55 871.071 369.95 863.471 347.55 848.271C325.15 833.071 306.75 809.071 292.35 776.271C278.75 742.671 268.75 698.271 262.35 643.071C256.75 587.871 253.95 520.671 253.95 441.471C253.95 362.271 256.75 295.471 262.35 241.071C268.75 185.871 278.75 141.871 292.35 109.071C306.75 75.4713 325.15 51.0713 347.55 35.8713C370.75 20.6713 398.75 13.0713 431.55 13.0713C463.55 13.0713 490.35 20.6713 511.95 35.8713C534.35 51.0713 552.35 75.4713 565.95 109.071C579.55 141.871 589.15 185.871 594.75 241.071C601.15 295.471 604.35 362.271 604.35 441.471C604.35 520.671 601.15 587.871 594.75 643.071C589.15 698.271 579.55 742.671 565.95 776.271Z" fill="white"/>
</svg>
