<svg xmlns="http://www.w3.org/2000/svg" version="1.1" xmlns:xlink="http://www.w3.org/1999/xlink" xmlns:svgjs="http://svgjs.dev/svgjs" width="2000" height="1500" viewBox="0 0 2000 1500"><rect width="2000" height="1500" fill="#ffffff"></rect><g transform="matrix(0.75,0,0,0.75,249.090909090909,282.7536437246964)"><svg viewBox="0 0 396 247" data-background-color="#000000" preserveAspectRatio="xMidYMid meet" height="1247" width="2000" xmlns="http://www.w3.org/2000/svg" xmlns:xlink="http://www.w3.org/1999/xlink"><g id="tight-bounds" transform="matrix(1,0,0,1,0.2400000000000091,-0.09999999999999432)"><svg viewBox="0 0 395.52 247.2" height="247.2" width="395.52"><g><svg></svg></g><g><svg viewBox="0 0 395.52 247.2" height="247.2" width="395.52"><mask id="b9a0ba46-7d41-49bf-a0e1-1a208d622d11"><rect width="395.52" height="247.2" fill="white"></rect><g transform="matrix(1,0,0,1,14.227514910536797,37.08)" id="clone"><svg viewBox="0 0 367.0649701789264 173.04" height="173.04" width="367.0649701789264"><g><svg viewBox="0 0 367.0649701789264 173.04" height="173.04" width="367.0649701789264"><g><svg viewBox="0 0 367.0649701789264 173.04" height="173.04" width="367.0649701789264"><g><svg viewBox="0 0 367.0649701789264 173.04" height="173.04" width="367.0649701789264"><g id="SvgjsG3347"><svg viewBox="0 0 367.0649701789264 173.04" height="173.04" width="367.0649701789264" id="SvgjsSvg3346"><g><svg viewBox="0 0 367.0649701789264 173.04" height="173.04" width="367.0649701789264"><g transform="matrix(1,0,0,1,0,0)"><svg width="367.0649701789264" viewBox="2.1500000000000004 -44.65 107.69 51.3" height="173.04" data-palette-color="#89939e"><path d="M5.15-8.8L5.15-8.8Q5.15-11.65 6.33-14.33 7.5-17 9.43-19.07 11.35-21.15 13.83-22.43 16.3-23.7 18.95-23.7L18.95-23.7Q21.55-23.7 22.95-22.4 24.35-21.1 24.35-18.7L24.35-18.7Q24.35-17.55 24.03-16.48 23.7-15.4 23.18-14.55 22.65-13.7 21.95-13.18 21.25-12.65 20.55-12.65L20.55-12.65Q19.95-12.65 19.33-13.03 18.7-13.4 18.3-14L18.3-14Q21.65-17.05 21.65-19.55L21.65-19.55Q21.65-21 20.5-21L20.5-21Q19.5-21 18-20.05 16.5-19.1 15.1-17.55L15.1-17.55Q12.95-15.15 11.83-12.23 10.7-9.3 10.7-6.1L10.7-6.1Q10.7-2.05 12.5-1.25L12.5-1.25Q13.25-1.35 14.25-1.7 15.25-2.05 16.4-2.63 17.55-3.2 18.78-3.95 20-4.7 21.15-5.55L21.15-5.55Q21.35-5.4 21.5-5.1 21.65-4.8 21.65-4.55L21.65-4.55Q20.8-3.5 19.7-2.5 18.6-1.5 17.4-0.68 16.2 0.15 15.08 0.73 13.95 1.3 13.1 1.45L13.1 1.45Q11.45 1.3 10 0.43 8.55-0.45 7.48-1.85 6.4-3.25 5.78-5.05 5.15-6.85 5.15-8.8ZM25.8-3.2L25.8-3.2Q25.8-5.4 26.85-9.38 27.9-13.35 29.8-18.65L29.8-18.65Q32.9-27.1 35.62-32.73 38.35-38.35 40.95-41.5L40.95-41.5Q41.55-41.4 42.42-41 43.3-40.6 44.15-40.13 45-39.65 45.67-39.15 46.35-38.65 46.55-38.35L46.55-38.35Q42.65-33.75 39.7-28.45 36.75-23.15 34.3-16.3L34.3-16.3Q32.2-10.4 31.1-5.68 30-0.95 30 2.2L30 2.2Q30 3.05 30 3.25 30 3.45 30.05 3.65L30.05 3.65Q29.35 3.55 28.85 3.3 28.35 3.05 28.2 2.7L28.2 2.7Q28.1 2.45 27.65 1.98 27.2 1.5 26.85 1.25L26.85 1.25Q26.4 0.95 26.1-0.33 25.8-1.6 25.8-3.2ZM51.25-1.1L51.25-1.1Q50.3-1.9 49.97-3.1 49.65-4.3 49.65-5.15L49.65-5.15Q49.65-6.2 49.9-6.95L49.9-6.95Q49.7-6.95 49-6.15 48.3-5.35 47.47-4.25 46.65-3.15 45.84-2.1 45.05-1.05 44.65-0.55L44.65-0.55Q44 0.15 43.42 0.55 42.84 0.95 42.5 1L42.5 1Q41.7 0.95 40.82 0.68 39.95 0.4 39.17-0.1 38.4-0.6 37.82-1.3 37.25-2 37.05-2.9L37.05-2.9Q37.05-4.3 37.12-5.2 37.2-6.1 37.45-7.15L37.45-7.15Q37.9-9.05 38.77-11.45 39.65-13.85 40.8-16.18 41.95-18.5 43.37-20.53 44.8-22.55 46.4-23.7L46.4-23.7Q46.84-23.7 47.45-23.63 48.05-23.55 48.67-23.35 49.3-23.15 49.87-22.88 50.45-22.6 50.84-22.15L50.84-22.15Q50.4-21.65 48.57-18.8 46.75-15.95 44.5-10.6L44.5-10.6Q44.25-10.05 43.9-9 43.55-7.95 43.2-6.8 42.84-5.65 42.62-4.55 42.4-3.45 42.4-2.8L42.4-2.8Q42.4-2.4 42.52-2.2 42.65-2 42.75-1.9L42.75-1.9Q43.5-2.2 44.65-3.55 45.8-4.9 47.84-7.7L47.84-7.7Q48.34-8.4 49.02-9.3 49.7-10.2 50.4-11.23 51.09-12.25 51.72-13.35 52.34-14.45 52.75-15.55L52.75-15.55Q52.95-16.15 53.27-16.98 53.59-17.8 54.07-18.7 54.55-19.6 55.17-20.53 55.8-21.45 56.65-22.25L56.65-22.25Q57.3-22.25 58.05-22.1 58.8-21.95 59.47-21.73 60.15-21.5 60.65-21.23 61.15-20.95 61.4-20.65L61.4-20.65Q60.5-18.45 59.4-16.3 58.3-14.15 57.34-12.08 56.4-10 55.75-7.95 55.09-5.9 55.09-3.95L55.09-3.95Q55.09-2.9 55.27-2.13 55.45-1.35 55.65-0.83 55.84-0.3 56.02 0.05 56.2 0.4 56.2 0.65L56.2 0.65Q56.2 0.7 56.09 0.8L56.09 0.8Q56.05 0.85 56 0.85L56 0.85Q55.65 0.85 55.09 0.7 54.55 0.55 53.87 0.28 53.2 0 52.52-0.35 51.84-0.7 51.25-1.1ZM66.74 0.35L66.74 0.35Q69.04-1.2 71.24-3.63 73.44-6.05 75.24-8.88 77.04-11.7 78.29-14.75 79.54-17.8 79.99-20.6L79.99-20.6Q79.99-21.2 79.34-21.4L79.34-21.4Q78.64-21.4 77.42-20.18 76.19-18.95 74.72-17.05 73.24-15.15 71.72-12.8 70.19-10.45 68.94-8.13 67.69-5.8 66.82-3.78 65.94-1.75 65.84-0.5L65.84-0.5Q65.34-0.5 64.99-1.5L64.99-1.5Q64.89-1.75 64.64-2.02 64.39-2.3 63.84-2.7L63.84-2.7Q63.59-2.9 63.34-3.18 63.09-3.45 62.99-3.65L62.99-3.65Q62.79-4.05 62.79-4.95L62.79-4.95Q62.79-7.9 63.54-11.6 64.29-15.3 65.52-19.15 66.74-23 68.39-26.73 70.04-30.45 71.82-33.55 73.59-36.65 75.39-38.8 77.19-40.95 78.79-41.65L78.79-41.65Q79.29-41.5 79.99-41.15 80.69-40.8 81.39-40.35 82.09-39.9 82.72-39.45 83.34-39 83.64-38.65L83.64-38.65Q78.14-34.2 74.12-27.23 70.09-20.25 67.54-10.75L67.54-10.75Q68.94-13.35 70.69-15.78 72.44-18.2 74.17-20.05 75.89-21.9 77.47-23 79.04-24.1 80.09-24.1L80.09-24.1Q80.89-23.9 81.64-23.4 82.39-22.9 82.99-22.18 83.59-21.45 83.99-20.63 84.39-19.8 84.49-18.9L84.49-18.9Q84.44-16.8 83.77-14.43 83.09-12.05 81.97-9.75 80.84-7.45 79.42-5.35 77.99-3.25 76.42-1.68 74.84-0.1 73.27 0.85 71.69 1.8 70.29 1.8L70.29 1.8Q69.69 1.8 69.07 1.68 68.44 1.55 67.92 1.33 67.39 1.1 67.07 0.85 66.74 0.6 66.74 0.35ZM83.94-0.7L83.94-0.7Q83.94-1.5 85.34-3.28 86.74-5.05 89.07-7.33 91.39-9.6 94.42-12.13 97.44-14.65 100.69-17L100.69-17Q98.59-17.45 97.37-17.65 96.14-17.85 95.39-17.85L95.39-17.85Q93.94-17.85 92.79-17.45 91.64-17.05 90.54-16.15L90.54-16.15Q88.24-18.15 88.24-20.75L88.24-20.75Q88.24-21.55 88.29-21.7L88.29-21.7Q89.14-22.55 90.32-23 91.49-23.45 92.79-23.45L92.79-23.45Q94.19-23.45 95.64-23 97.09-22.55 98.49-22.03 99.89-21.5 101.12-21.05 102.34-20.6 103.29-20.6L103.29-20.6Q103.84-20.6 104.52-20.75 105.19-20.9 105.64-21.15L105.64-21.15Q106.09-20.8 106.47-19.75 106.84-18.7 106.84-17.7L106.84-17.7Q105.29-17.1 103.12-15.6 100.94-14.1 98.69-12.15 96.44-10.2 94.32-8 92.19-5.8 90.79-3.85L90.79-3.85Q91.84-3.4 93.64-3.4L93.64-3.4Q94.79-3.4 95.99-3.6 97.19-3.8 98.32-4.15 99.44-4.5 100.39-4.98 101.34-5.45 101.99-6L101.99-6Q104.34-4.5 104.34-1.6L104.34-1.6Q104.34-1.2 104.32-0.95 104.29-0.7 104.24-0.35L104.24-0.35Q101.94 1.1 99.24 1.1L99.24 1.1Q97.89 1.1 96.54 0.83 95.19 0.55 93.92 0.25 92.64-0.05 91.52-0.33 90.39-0.6 89.44-0.6L89.44-0.6Q87.04-0.6 85.54 1.65L85.54 1.65Q84.89 1.4 84.47 0.75 84.04 0.1 83.94-0.7Z" opacity="1" transform="matrix(1,0,0,1,0,0)" fill="black" class="wordmark-text-0" id="SvgjsPath3345" stroke-width="5" stroke="black" stroke-linejoin="round"></path></svg></g></svg></g></svg></g></svg></g><g></g></svg></g></svg></g></svg></g></mask><g mask="url(#b9a0ba46-7d41-49bf-a0e1-1a208d622d11)"><g><path d="M108.089 164.194v0c0-14.137 1.676-28.032 5.029-41.685 3.312-13.612 7.998-26.538 14.057-38.776 6.059-12.198 13.289-23.407 21.69-33.627 8.361-10.179 17.55-19.005 27.568-26.477 9.977-7.473 20.62-13.289 31.93-17.449 11.31-4.12 22.923-6.18 34.838-6.18v0c13.935 0 24.781 2.928 32.536 8.785 7.796 5.857 11.694 14.036 11.694 24.539v0c0 4.039-0.545 8.179-1.636 12.42-1.131 4.241-2.747 8.422-4.847 12.542-2.141 4.16-4.625 8.159-7.453 11.996-2.827 3.837-5.958 7.17-9.391 9.997v0c-5.251-0.808-9.795-3.191-13.632-7.149-3.837-3.918-6.261-8.503-7.271-13.754v0c7.069-5.857 12.683-11.976 16.844-18.358 4.12-6.342 6.18-12.138 6.18-17.389v0c0-8.886-5.554-13.329-16.662-13.329v0c-4.645 0-9.432 0.949-14.359 2.848-4.968 1.939-9.977 4.625-15.026 8.058-5.049 3.433-9.936 7.574-14.663 12.42-4.766 4.847-9.169 10.199-13.208 16.056v0c-28.073 40.392-42.109 81.693-42.109 123.903v0c0 14.945 2.323 26.962 6.968 36.05 4.645 9.088 10.805 14.44 18.479 16.056v0c8.684-2.02 19.691-7.574 33.021-16.662 13.329-9.088 27.871-20.903 43.623-35.444v0c2.02 2.02 3.231 4.14 3.636 6.362v0c-5.857 7.675-11.916 15.046-18.177 22.115-6.261 7.069-12.461 13.531-18.6 19.388-6.18 5.857-12.239 11.007-18.177 15.45-5.978 4.443-11.492 7.876-16.54 10.3v0c-25.043-0.404-44.027-7.574-56.953-21.509-12.925-13.935-19.388-34.434-19.389-61.497z" fill="#000000" fill-rule="nonzero" stroke="none" stroke-width="1" stroke-linecap="butt" stroke-linejoin="miter" stroke-miterlimit="10" stroke-dasharray="" stroke-dashoffset="0" font-family="none" font-weight="none" font-size="none" text-anchor="none" style="mix-blend-mode: normal" data-fill-palette-color="tertiary"></path></g></g><g transform="matrix(1,0,0,1,14.227514910536797,37.08)"><svg viewBox="0 0 367.0649701789264 173.04" height="173.04" width="367.0649701789264"><g><svg viewBox="0 0 367.0649701789264 173.04" height="173.04" width="367.0649701789264"><g><svg viewBox="0 0 367.0649701789264 173.04" height="173.04" width="367.0649701789264"><g><svg viewBox="0 0 367.0649701789264 173.04" height="173.04" width="367.0649701789264"><g id="textblocktransform"><svg viewBox="0 0 367.0649701789264 173.04" height="173.04" width="367.0649701789264" id="textblock"><g><svg viewBox="0 0 367.0649701789264 173.04" height="173.04" width="367.0649701789264"><g transform="matrix(1,0,0,1,0,0)"><svg width="367.0649701789264" viewBox="2.1500000000000004 -44.65 107.69 51.3" height="173.04" data-palette-color="#89939e"><path d="M5.15-8.8L5.15-8.8Q5.15-11.65 6.33-14.33 7.5-17 9.43-19.07 11.35-21.15 13.83-22.43 16.3-23.7 18.95-23.7L18.95-23.7Q21.55-23.7 22.95-22.4 24.35-21.1 24.35-18.7L24.35-18.7Q24.35-17.55 24.03-16.48 23.7-15.4 23.18-14.55 22.65-13.7 21.95-13.18 21.25-12.65 20.55-12.65L20.55-12.65Q19.95-12.65 19.33-13.03 18.7-13.4 18.3-14L18.3-14Q21.65-17.05 21.65-19.55L21.65-19.55Q21.65-21 20.5-21L20.5-21Q19.5-21 18-20.05 16.5-19.1 15.1-17.55L15.1-17.55Q12.95-15.15 11.83-12.23 10.7-9.3 10.7-6.1L10.7-6.1Q10.7-2.05 12.5-1.25L12.5-1.25Q13.25-1.35 14.25-1.7 15.25-2.05 16.4-2.63 17.55-3.2 18.78-3.95 20-4.7 21.15-5.55L21.15-5.55Q21.35-5.4 21.5-5.1 21.65-4.8 21.65-4.55L21.65-4.55Q20.8-3.5 19.7-2.5 18.6-1.5 17.4-0.68 16.2 0.15 15.08 0.73 13.95 1.3 13.1 1.45L13.1 1.45Q11.45 1.3 10 0.43 8.55-0.45 7.48-1.85 6.4-3.25 5.78-5.05 5.15-6.85 5.15-8.8ZM25.8-3.2L25.8-3.2Q25.8-5.4 26.85-9.38 27.9-13.35 29.8-18.65L29.8-18.65Q32.9-27.1 35.62-32.73 38.35-38.35 40.95-41.5L40.95-41.5Q41.55-41.4 42.42-41 43.3-40.6 44.15-40.13 45-39.65 45.67-39.15 46.35-38.65 46.55-38.35L46.55-38.35Q42.65-33.75 39.7-28.45 36.75-23.15 34.3-16.3L34.3-16.3Q32.2-10.4 31.1-5.68 30-0.95 30 2.2L30 2.2Q30 3.05 30 3.25 30 3.45 30.05 3.65L30.05 3.65Q29.35 3.55 28.85 3.3 28.35 3.05 28.2 2.7L28.2 2.7Q28.1 2.45 27.65 1.98 27.2 1.5 26.85 1.25L26.85 1.25Q26.4 0.95 26.1-0.33 25.8-1.6 25.8-3.2ZM51.25-1.1L51.25-1.1Q50.3-1.9 49.97-3.1 49.65-4.3 49.65-5.15L49.65-5.15Q49.65-6.2 49.9-6.95L49.9-6.95Q49.7-6.95 49-6.15 48.3-5.35 47.47-4.25 46.65-3.15 45.84-2.1 45.05-1.05 44.65-0.55L44.65-0.55Q44 0.15 43.42 0.55 42.84 0.95 42.5 1L42.5 1Q41.7 0.95 40.82 0.68 39.95 0.4 39.17-0.1 38.4-0.6 37.82-1.3 37.25-2 37.05-2.9L37.05-2.9Q37.05-4.3 37.12-5.2 37.2-6.1 37.45-7.15L37.45-7.15Q37.9-9.05 38.77-11.45 39.65-13.85 40.8-16.18 41.95-18.5 43.37-20.53 44.8-22.55 46.4-23.7L46.4-23.7Q46.84-23.7 47.45-23.63 48.05-23.55 48.67-23.35 49.3-23.15 49.87-22.88 50.45-22.6 50.84-22.15L50.84-22.15Q50.4-21.65 48.57-18.8 46.75-15.95 44.5-10.6L44.5-10.6Q44.25-10.05 43.9-9 43.55-7.95 43.2-6.8 42.84-5.65 42.62-4.55 42.4-3.45 42.4-2.8L42.4-2.8Q42.4-2.4 42.52-2.2 42.65-2 42.75-1.9L42.75-1.9Q43.5-2.2 44.65-3.55 45.8-4.9 47.84-7.7L47.84-7.7Q48.34-8.4 49.02-9.3 49.7-10.2 50.4-11.23 51.09-12.25 51.72-13.35 52.34-14.45 52.75-15.55L52.75-15.55Q52.95-16.15 53.27-16.98 53.59-17.8 54.07-18.7 54.55-19.6 55.17-20.53 55.8-21.45 56.65-22.25L56.65-22.25Q57.3-22.25 58.05-22.1 58.8-21.95 59.47-21.73 60.15-21.5 60.65-21.23 61.15-20.95 61.4-20.65L61.4-20.65Q60.5-18.45 59.4-16.3 58.3-14.15 57.34-12.08 56.4-10 55.75-7.95 55.09-5.9 55.09-3.95L55.09-3.95Q55.09-2.9 55.27-2.13 55.45-1.35 55.65-0.83 55.84-0.3 56.02 0.05 56.2 0.4 56.2 0.65L56.2 0.65Q56.2 0.7 56.09 0.8L56.09 0.8Q56.05 0.85 56 0.85L56 0.85Q55.65 0.85 55.09 0.7 54.55 0.55 53.87 0.28 53.2 0 52.52-0.35 51.84-0.7 51.25-1.1ZM66.74 0.35L66.74 0.35Q69.04-1.2 71.24-3.63 73.44-6.05 75.24-8.88 77.04-11.7 78.29-14.75 79.54-17.8 79.99-20.6L79.99-20.6Q79.99-21.2 79.34-21.4L79.34-21.4Q78.64-21.4 77.42-20.18 76.19-18.95 74.72-17.05 73.24-15.15 71.72-12.8 70.19-10.45 68.94-8.13 67.69-5.8 66.82-3.78 65.94-1.75 65.84-0.5L65.84-0.5Q65.34-0.5 64.99-1.5L64.99-1.5Q64.89-1.75 64.64-2.02 64.39-2.3 63.84-2.7L63.84-2.7Q63.59-2.9 63.34-3.18 63.09-3.45 62.99-3.65L62.99-3.65Q62.79-4.05 62.79-4.95L62.79-4.95Q62.79-7.9 63.54-11.6 64.29-15.3 65.52-19.15 66.74-23 68.39-26.73 70.04-30.45 71.82-33.55 73.59-36.65 75.39-38.8 77.19-40.95 78.79-41.65L78.79-41.65Q79.29-41.5 79.99-41.15 80.69-40.8 81.39-40.35 82.09-39.9 82.72-39.45 83.34-39 83.64-38.65L83.64-38.65Q78.14-34.2 74.12-27.23 70.09-20.25 67.54-10.75L67.54-10.75Q68.94-13.35 70.69-15.78 72.44-18.2 74.17-20.05 75.89-21.9 77.47-23 79.04-24.1 80.09-24.1L80.09-24.1Q80.89-23.9 81.64-23.4 82.39-22.9 82.99-22.18 83.59-21.45 83.99-20.63 84.39-19.8 84.49-18.9L84.49-18.9Q84.44-16.8 83.77-14.43 83.09-12.05 81.97-9.75 80.84-7.45 79.42-5.35 77.99-3.25 76.42-1.68 74.84-0.1 73.27 0.85 71.69 1.8 70.29 1.8L70.29 1.8Q69.69 1.8 69.07 1.68 68.44 1.55 67.92 1.33 67.39 1.1 67.07 0.85 66.74 0.6 66.74 0.35ZM83.94-0.7L83.94-0.7Q83.94-1.5 85.34-3.28 86.74-5.05 89.07-7.33 91.39-9.6 94.42-12.13 97.44-14.65 100.69-17L100.69-17Q98.59-17.45 97.37-17.65 96.14-17.85 95.39-17.85L95.39-17.85Q93.94-17.85 92.79-17.45 91.64-17.05 90.54-16.15L90.54-16.15Q88.24-18.15 88.24-20.75L88.24-20.75Q88.24-21.55 88.29-21.7L88.29-21.7Q89.14-22.55 90.32-23 91.49-23.45 92.79-23.45L92.79-23.45Q94.19-23.45 95.64-23 97.09-22.55 98.49-22.03 99.89-21.5 101.12-21.05 102.34-20.6 103.29-20.6L103.29-20.6Q103.84-20.6 104.52-20.75 105.19-20.9 105.64-21.15L105.64-21.15Q106.09-20.8 106.47-19.75 106.84-18.7 106.84-17.7L106.84-17.7Q105.29-17.1 103.12-15.6 100.94-14.1 98.69-12.15 96.44-10.2 94.32-8 92.19-5.8 90.79-3.85L90.79-3.85Q91.84-3.4 93.64-3.4L93.64-3.4Q94.79-3.4 95.99-3.6 97.19-3.8 98.32-4.15 99.44-4.5 100.39-4.98 101.34-5.45 101.99-6L101.99-6Q104.34-4.5 104.34-1.6L104.34-1.6Q104.34-1.2 104.32-0.95 104.29-0.7 104.24-0.35L104.24-0.35Q101.94 1.1 99.24 1.1L99.24 1.1Q97.89 1.1 96.54 0.83 95.19 0.55 93.92 0.25 92.64-0.05 91.52-0.33 90.39-0.6 89.44-0.6L89.44-0.6Q87.04-0.6 85.54 1.65L85.54 1.65Q84.89 1.4 84.47 0.75 84.04 0.1 83.94-0.7Z" opacity="1" transform="matrix(1,0,0,1,0,0)" fill="#000000" class="wordmark-text-0" data-fill-palette-color="primary" id="text-0"></path></svg></g></svg></g></svg></g></svg></g><g></g></svg></g></svg></g></svg></g></svg></g><defs></defs></svg><rect width="395.52" height="247.2" fill="none" stroke="none" visibility="hidden"></rect></g></svg></g></svg>