<svg viewBox="0 0 200 200" xmlns="http://www.w3.org/2000/svg">
  <path fill="currentColor" d="M20.7,-31.8C34.3,-28,58,-37.6,59.5,-34.5C61,-31.5,40.2,-15.7,36.7,-2.1C33.1,11.6,46.7,23.2,47.7,30.5C48.6,37.7,36.8,40.5,26.7,43.9C16.7,47.4,8.3,51.5,-4.1,58.5C-16.4,65.5,-32.9,75.5,-46.1,73.9C-59.3,72.2,-69.3,59,-65.7,44.8C-62,30.5,-44.7,15.3,-38.9,3.4C-33.1,-8.5,-38.7,-17.1,-40.1,-27.4C-41.5,-37.8,-38.7,-50,-31.3,-57.3C-23.9,-64.7,-12,-67.2,-4.2,-59.9C3.5,-52.6,7.1,-35.5,20.7,-31.8Z" transform="translate(100 100)" />
</svg>