<svg width="474" height="526" viewBox="0 0 474 526" fill="none" xmlns="http://www.w3.org/2000/svg">
<g clip-path="url(#clip0_17_186)">
<path d="M121.298 211.409C136.897 187.213 160.275 176.246 160.275 176.246C161.038 175.894 157.786 142.745 157.72 140.394C156.734 101.67 162.521 61.3783 188.753 33.4161C221.544 -1.51569 281.04 -8.75345 318.657 20.6762C318.183 20.287 331.033 9.04639 332.119 8.32577C339.139 3.62386 347.061 0.828534 355.24 0.16751C388.155 -2.46249 418.339 26.2362 430.687 60.9522C443.035 95.6682 440.2 174.768 417.548 197.581" stroke="#CCDDE2" stroke-width="5.05" stroke-miterlimit="10"/>
<path d="M107.234 253.384C108.045 243.855 110.253 234.535 113.77 225.795C114.105 224.964 114.456 224.151 114.823 223.355" stroke="#CCDDE2" stroke-width="5.05" stroke-miterlimit="10"/>
<path d="M147.913 354.08C144.121 350.256 140.608 346.364 137.39 342.451" stroke="#CCDDE2" stroke-width="5.05" stroke-miterlimit="10"/>
<path d="M463.9 240.355C463.928 242.985 463.9 245.668 463.786 248.355C463.113 264.982 459.904 282.167 451.884 296.169C450.424 298.753 448.796 301.214 447.011 303.533C429.947 301.034 427.402 281.72 407.669 270.8C384.031 257.687 345.324 262.384 345.324 262.384L364.393 242.864C363.374 184.078 324.482 187.687 324.482 187.687L322.506 193.057C324.007 188.193 325.525 183.658 327.061 179.45L327.146 179.229C345.158 129.585 363.82 123.43 378.338 116.261C381.807 115.347 385.358 114.877 388.923 114.862C426.042 114.641 447.827 156.59 457.354 190.359C459.724 198.775 463.369 216.774 463.857 237.015C463.867 238.099 463.9 239.229 463.9 240.355Z" fill="#2D239A"/>
<path d="M484.756 460.686C481.874 465.089 477.12 467.488 472.219 467.488H415.907C413.744 467.522 411.597 467.053 409.606 466.112C407.615 465.171 405.823 463.778 404.347 462.023C404.146 461.797 403.959 461.559 403.787 461.307C402.022 458.881 400.919 455.947 400.607 452.849C400.322 450.003 402.228 447.473 404.806 447.589C405.783 447.631 406.714 448.065 407.425 448.809C408.136 449.554 408.58 450.559 408.674 451.639C408.674 451.865 408.717 452.086 408.745 452.307C408.954 453.591 409.462 454.792 410.219 455.789C410.889 456.668 411.73 457.366 412.678 457.831C413.626 458.297 414.658 458.518 415.694 458.477H472.46C473.477 458.496 474.484 458.272 475.415 457.817C476.345 457.363 477.176 456.691 477.85 455.847C478.61 454.871 479.128 453.693 479.354 452.428C479.58 451.163 479.506 449.854 479.139 448.631L453.785 364.97C453.578 364.329 453.333 363.703 453.05 363.098C451.562 359.609 449.203 356.667 446.253 354.621C443.303 352.576 439.886 351.512 436.408 351.557C425.733 351.699 412.182 351.731 410.907 351.731C382.5 351.615 369.574 351.615 362.464 351.826C362.952 349.887 363.834 348.098 365.042 346.597C365.042 346.597 365.071 346.565 365.071 346.55C366.805 344.499 369.178 343.259 371.707 343.083C382.239 342.126 392.667 340.38 402.797 337.329C420.671 331.953 437.721 322.732 449.566 307.904C455.332 300.727 459.69 292.297 462.364 283.151C464.439 275.888 465.747 268.383 466.26 260.785C466.444 258.387 466.558 255.97 466.602 253.537V253.427C466.602 252.869 466.63 252.296 466.63 251.738C466.695 248.272 466.552 244.805 466.204 241.36C469.299 241.387 472.263 242.749 474.47 245.158C474.663 245.724 474.807 246.311 474.897 246.91C474.982 247.476 475.025 248.049 475.025 248.624V316.662C475.03 321.31 474.203 325.912 472.593 330.201C470.982 334.491 468.621 338.384 465.644 341.653C460.715 347.07 459.312 355.292 461.648 362.524L486.846 445.727C487.607 448.223 487.815 450.886 487.451 453.49C487.087 456.094 486.163 458.563 484.756 460.686Z" fill="#FE0505"/>
<path d="M137.395 458.586V267.843H147.913V458.665L137.395 458.586Z" fill="#2D239A"/>
<path d="M345.329 262.358C352.861 261.469 361.573 260.417 369.939 260.627" stroke="white" stroke-width="5.05" stroke-miterlimit="10"/>
<path d="M304.3 270.783C290.961 274.518 277.983 279.909 266.91 288.872C248.33 303.895 239.836 331.92 247.429 356.2C247.429 356.232 277.291 451.822 277.291 451.822H269.432C267.738 451.821 266.061 452.193 264.498 452.915C262.934 453.637 261.515 454.696 260.322 456.03C257.985 458.607 256.833 462.905 256.833 466.85H327.568L300.688 369.277C300.017 366.872 299.867 364.325 300.248 361.843C300.629 359.361 301.531 357.014 302.881 354.991C304.232 352.968 305.992 351.326 308.021 350.199C310.049 349.071 312.288 348.489 314.557 348.5C329.872 348.978 344.097 349.63 359.587 348.884" stroke="white" stroke-width="5.05" stroke-miterlimit="10"/>
<path d="M464.009 249.149V249.044C463.322 228.53 462.393 208.289 457.335 190.342C447.808 156.573 426.023 114.625 388.904 114.846C385.339 114.861 381.788 115.331 378.319 116.245C353.852 122.699 336.859 150.519 327.127 179.212L327.042 179.433C326.113 182.186 325.254 184.931 324.464 187.67C323.928 189.513 323.267 191.309 322.487 193.041C319.506 199.707 314.781 205.219 308.93 208.856C303.079 212.493 296.375 214.084 289.696 213.423C244.76 208.889 185.539 206.301 166.887 241.338" stroke="white" stroke-width="5.05" stroke-miterlimit="10"/>
<path d="M390.477 210.994C383.936 219.757 377.049 228.22 369.929 236.405C355.354 253.174 342.779 270.984 320.159 272.173C302.114 273.135 284.936 265.451 267.872 260.122C249.619 254.426 240.38 249.87 223.369 244.116C218.469 242.465 213.387 241.58 208.267 241.486L191.141 241.633" stroke="white" stroke-width="5.05" stroke-miterlimit="10"/>
<path d="M323.681 453.054C325.312 452.243 327.08 451.827 328.867 451.834H336.745C336.745 451.834 320.278 416.313 307.11 392.669" stroke="white" stroke-width="5.05" stroke-miterlimit="10"/>
<path d="M334.498 348.964L389.577 467.488H327.274H315.974" stroke="white" stroke-width="5.05" stroke-miterlimit="10"/>
<path d="M484.756 460.686C481.874 465.089 477.12 467.488 472.219 467.488H415.907C411.239 467.488 406.683 465.342 403.773 461.291C402.008 458.865 400.905 455.931 400.592 452.833C400.308 449.988 402.214 447.458 404.792 447.573C405.769 447.615 406.699 448.049 407.41 448.793C408.121 449.538 408.566 450.543 408.66 451.623C408.775 453.151 409.315 454.601 410.205 455.774C410.885 456.638 411.728 457.327 412.673 457.792C413.619 458.256 414.646 458.485 415.68 458.461H472.46C473.477 458.48 474.484 458.256 475.415 457.801C476.345 457.347 477.176 456.675 477.85 455.831C478.61 454.855 479.128 453.677 479.354 452.412C479.58 451.147 479.506 449.838 479.139 448.615L453.785 364.97C452.501 361.009 450.138 357.59 447.025 355.187C443.911 352.784 440.2 351.515 436.408 351.557C425.733 351.699 412.182 351.731 410.907 351.731C379.277 351.62 366.825 351.62 360.227 351.889C360.124 351.888 360.022 351.864 359.928 351.82C359.833 351.776 359.747 351.711 359.675 351.63C359.603 351.549 359.546 351.454 359.507 351.348C359.468 351.242 359.448 351.129 359.449 351.015C359.44 347.768 360.513 344.631 362.464 342.21C362.471 342.204 362.478 342.196 362.483 342.187C362.488 342.178 362.491 342.168 362.492 342.158C364.229 340.111 366.601 338.874 369.128 338.697C379.661 337.739 390.089 335.993 400.218 332.942C418.093 327.566 435.142 318.346 446.988 303.518C452.753 296.34 457.112 287.91 459.786 278.764C461.855 271.504 463.158 264.002 463.668 256.409C463.854 254.003 463.968 251.587 464.009 249.161V249.045C464.009 248.493 464.037 247.919 464.037 247.362C464.102 243.896 463.959 240.429 463.611 236.984C468.768 236.952 473.968 241.113 474.868 246.92C474.954 247.487 474.997 248.06 474.996 248.635V316.662C475.001 321.31 474.175 325.912 472.564 330.201C470.954 334.491 468.592 338.384 465.616 341.653C460.686 347.07 459.283 355.292 461.62 362.524L486.818 445.727C487.583 448.221 487.795 450.882 487.436 453.487C487.078 456.091 486.158 458.56 484.756 460.686Z" stroke="white" stroke-width="5.05" stroke-miterlimit="10"/>
<path d="M214.216 253.39H67.508C63.9137 253.39 61 256.624 61 260.612V260.618C61 264.606 63.9137 267.84 67.508 267.84H214.216C217.81 267.84 220.724 264.606 220.724 260.618V260.612C220.724 256.624 217.81 253.39 214.216 253.39Z" stroke="white" stroke-width="5.05" stroke-miterlimit="10"/>
<path d="M172.67 459.492H113.349C111.336 459.492 109.704 461.303 109.704 463.537C109.704 465.771 111.336 467.582 113.349 467.582H172.67C174.683 467.582 176.315 465.771 176.315 463.537C176.315 461.303 174.683 459.492 172.67 459.492Z" stroke="white" stroke-width="5.05" stroke-miterlimit="10"/>
<path d="M129.19 246.905V247.631C129.284 252.622 133.517 253.385 137.167 253.417L207.727 253.364C210.817 253.364 213.367 250.734 213.372 247.504V247.368C213.315 244.212 210.831 241.639 207.779 241.634C207.779 241.634 168.304 241.476 137.731 241.376C137.181 243.154 135.788 244.532 134.048 245.658C132.552 246.529 130.879 246.958 129.19 246.905Z" stroke="white" stroke-width="5.05" stroke-miterlimit="10"/>
<path d="M90.3879 176.578C90.4026 177.409 90.6169 178.22 91.0089 178.929L123.715 239.887C124.138 240.62 124.694 241.248 125.346 241.731C125.999 242.214 126.734 242.543 127.507 242.696C128.814 242.981 130.168 242.818 131.389 242.228C133.394 241.239 134.55 239.245 134.513 237.225C134.505 236.971 134.482 236.718 134.441 236.468C134.341 235.911 134.155 235.377 133.892 234.89L101.186 173.932C99.7636 171.265 96.2845 170.218 93.4879 171.591C91.4923 172.559 90.3358 174.552 90.3879 176.578Z" stroke="white" stroke-width="5.05" stroke-miterlimit="10"/>
<path d="M178.827 241.634C178.827 241.634 182.766 237.473 191.824 230.867" stroke="white" stroke-width="5.05" stroke-miterlimit="10"/>
<path d="M210.945 173.253L196.588 190.921C195.588 192.152 194.2 192.91 192.711 193.039C191.222 193.167 189.745 192.656 188.587 191.611C187.946 191.034 187.424 190.313 187.053 189.496C186.682 188.678 186.472 187.783 186.436 186.869C186.4 185.954 186.54 185.042 186.845 184.192C187.15 183.342 187.615 182.573 188.207 181.937L190.833 179.118C190.933 178.96 191.047 178.818 191.16 178.671L193.056 176.351L209.362 156.689C211.341 154.276 213.833 152.451 216.611 151.382C219.389 150.312 222.364 150.032 225.265 150.567L225.506 150.614" stroke="white" stroke-width="5.05" stroke-miterlimit="10"/>
<path d="M231.166 178.035H216.804C215.169 178.035 213.602 177.314 212.447 176.032C211.291 174.749 210.642 173.01 210.642 171.197C210.642 169.383 211.291 167.644 212.447 166.362C213.602 165.079 215.169 164.359 216.804 164.359H237.186" stroke="white" stroke-width="5.05" stroke-miterlimit="10"/>
<path d="M220.155 178.035C219.956 180.828 218.994 182.895 217.576 184.347C213.927 188.029 207.234 187.624 202.579 185.093" stroke="white" stroke-width="5.05" stroke-miterlimit="10"/>
<path d="M193.08 176.341C188.952 170.823 189.8 163.322 193.009 157.521C206.257 133.514 231.512 148.3 248.116 158.646C258.001 164.835 267.449 171.843 276.381 179.613C284.287 186.451 291.606 194.635 301.105 198.748C306.793 201.215 313.509 201.804 319.169 198.959" stroke="white" stroke-width="5.05" stroke-miterlimit="10"/>
<path d="M217.576 184.306C227.595 192.512 237.162 201.377 246.225 210.853" stroke="white" stroke-width="5.05" stroke-miterlimit="10"/>
<path d="M339.48 55.2546C341.878 57.6847 345.561 57.8162 348.609 57.4901C352.505 57.0956 356.364 56.0489 360.179 55.1652L362.497 55.0337H362.53C362.975 55.0389 363.414 55.1405 363.823 55.334C364.232 55.5271 364.603 55.8079 364.914 56.1598C365.225 56.5123 365.47 56.9288 365.636 57.3865C365.803 57.8441 365.886 58.3333 365.881 58.8261C365.935 64.3775 365.435 69.9184 364.393 75.3478L368.834 78.0146C369.408 76.2367 368.763 73.6751 370.124 73.4805C370.996 71.6763 372.295 70.5033 374.333 71.8446C378.324 74.4746 379.898 82.2016 376.053 85.7415L378.518 90.8543C379.378 92.6469 380.771 94.0523 382.46 94.8314C384.149 95.6104 386.03 95.7145 387.78 95.1254L385.263 88.9501C391.169 90.1126 395.303 81.9333 393.501 76.9416C392.274 73.5121 392.335 70.8452 393.975 67.5104C394.084 67.2842 392.971 66.9844 393.065 66.753C393.122 64.3071 392.511 61.6876 391.449 60.441C389.581 58.2107 385.823 57.811 386.591 54.4235C386.932 52.9497 387.058 51.4243 386.965 49.9052C386.764 47.9195 386.183 46.0044 385.26 44.2891C384.337 42.5733 383.094 41.0968 381.614 39.9585C378.504 37.6915 375.025 39.7481 371.702 39.6903C367.668 39.6429 364.777 35.8452 360.549 35.7873C358.444 35.7505 356.757 36.6605 354.956 37.7914C353.448 38.754 351.965 39.7586 350.524 40.8475C349.083 41.9363 347.803 42.8778 346.082 42.8831C343.84 42.9146 341.674 41.3366 339.418 42.073C338.277 42.4139 337.275 43.1745 336.574 44.2296C335.858 48.1115 337.152 52.9139 339.48 55.2546Z" fill="#FE0505"/>
<path d="M368.854 77.4377C369.143 76.0674 369.569 74.7372 370.124 73.4716C370.996 71.6674 372.299 70.4945 374.333 71.8358C378.324 74.4658 379.898 82.1927 376.054 85.7327L378.518 90.8454C379.377 92.6375 380.771 94.0435 382.46 94.8225C384.149 95.6015 386.03 95.7051 387.78 95.1165" stroke="white" stroke-width="5.05" stroke-linecap="round" stroke-linejoin="round"/>
<path d="M385.263 88.9412L387.771 95.1269C388.401 96.605 390.207 101.15 392.098 105.873C393.444 109.255 394.847 112.737 395.89 115.299" stroke="white" stroke-width="5.05" stroke-linecap="round" stroke-linejoin="round"/>
<path d="M344.646 66.7283C344.646 66.7283 352.036 64.6874 355.264 70.9047" stroke="white" stroke-width="5.05" stroke-miterlimit="10"/>
<path d="M346.822 85.2908C344.831 85.8957 342.153 86.4375 340.617 84.5123L343.964 76.696C344.776 74.7792 344.977 72.6126 344.532 70.5523C343.802 67.086 341.978 61.8207 343.935 57.2498" stroke="white" stroke-width="5.05" stroke-miterlimit="10"/>
<path d="M351.795 74.815C352.356 73.7825 351.923 72.3523 350.829 71.6206C349.735 70.8889 348.393 71.1325 347.833 72.165C347.272 73.1975 347.704 74.6277 348.798 75.3594C349.892 76.0916 351.234 75.8475 351.795 74.815Z" fill="white"/>
<path d="M362.578 124.026L360.824 102.428" stroke="white" stroke-width="5.05" stroke-miterlimit="10"/>
<path d="M368.834 78.0041C368.834 77.8147 368.834 77.6201 368.834 77.4307C368.844 77.2277 368.844 77.0241 368.834 76.8206" stroke="white" stroke-width="5.05" stroke-linecap="round" stroke-linejoin="round"/>
<path d="M368.839 78.0114L367.313 77.1015L364.393 75.3394" stroke="white" stroke-width="5.05" stroke-linecap="round" stroke-linejoin="round"/>
<path d="M356.62 85.8468C356.62 85.8468 356.473 91.3172 350.837 93.5685" stroke="white" stroke-width="5.05" stroke-miterlimit="10"/>
<path d="M385.263 88.9407C391.169 90.1032 395.303 81.9239 393.501 76.9321C392.274 73.5026 392.335 70.8358 393.975 67.5009C394.084 67.2748 394.175 67.0538 394.269 66.8329C395.488 63.8505 395.056 60.8944 393.141 58.3591C391.326 55.9605 388.591 55.1189 389.378 51.621C389.731 50.1024 389.863 48.5308 389.766 46.9659C389.562 44.9235 388.965 42.9536 388.017 41.1889C387.068 39.4241 385.79 37.9056 384.268 36.7352C381.073 34.384 377.476 36.5143 374.034 36.4564C369.892 36.388 366.901 32.4746 362.554 32.4167C360.378 32.4167 358.625 33.3162 356.776 34.4839C355.221 35.4781 353.681 36.5248 352.211 37.6399C350.742 38.755 349.367 39.7439 347.623 39.7439C345.31 39.7439 343.077 38.1659 340.764 38.9023C338.451 39.6387 337.076 41.7638 336.621 44.2254C335.882 48.0863 337.176 52.9097 339.503 55.2714C341.902 57.7016 345.585 57.8331 348.633 57.5069C352.529 57.1124 356.387 56.0657 360.203 55.182L362.521 55.0505H362.554C362.999 55.0553 363.438 55.1573 363.847 55.3503C364.256 55.5439 364.626 55.8243 364.937 56.1767C365.249 56.5286 365.494 56.9457 365.661 57.4028C365.827 57.8604 365.909 58.3496 365.905 58.843C365.958 64.3944 365.459 69.9347 364.417 75.3646" stroke="white" stroke-width="5.05" stroke-miterlimit="10"/>
<path d="M369.731 94.9265C369.731 94.9265 360.924 107.908 353.098 104.999C345.272 102.091 344.874 86.0214 344.874 86.0214" stroke="white" stroke-width="5.05" stroke-linecap="round" stroke-linejoin="round"/>
<path d="M137.395 458.586V267.843H147.913V458.665" stroke="white" stroke-width="5.05" stroke-miterlimit="10"/>
<path d="M147.074 156.853C156.451 156.853 164.052 148.417 164.052 138.011C164.052 127.605 156.451 119.17 147.074 119.17C137.697 119.17 130.095 127.605 130.095 138.011C130.095 148.417 137.697 156.853 147.074 156.853Z" fill="#FE0505"/>
<path d="M140.433 142.871C139.936 142.495 139.495 142.035 139.125 141.509C138.469 140.609 138.134 139.473 138.182 138.317C138.23 137.161 138.658 136.064 139.385 135.234C139.86 134.692 140.441 134.279 141.083 134.028C141.726 133.777 142.411 133.695 143.087 133.787C142.938 132.744 143.098 131.675 143.544 130.742C143.99 129.809 144.699 129.062 145.561 128.615C146.423 128.168 147.394 128.044 148.325 128.262C149.256 128.481 150.098 129.03 150.724 129.827C152.046 131.489 152.667 133.961 152.899 136.139C153.019 137.275 153.035 138.423 152.947 139.563C152.904 140.136 152.719 143.445 152.236 143.655C149.041 145.012 143.595 145.307 140.433 142.871Z" fill="white"/>
<path d="M266.868 152.407C271.894 152.407 275.968 147.886 275.968 142.308C275.968 136.73 271.894 132.209 266.868 132.209C261.841 132.209 257.767 136.73 257.767 142.308C257.767 147.886 261.841 152.407 266.868 152.407Z" fill="#FE0505"/>
<path d="M266.242 137.628C266.519 137.442 266.822 137.309 267.138 137.233C267.681 137.088 268.254 137.169 268.748 137.459C269.242 137.75 269.623 138.231 269.821 138.811C269.949 139.191 269.996 139.598 269.96 140.002C269.923 140.405 269.802 140.793 269.607 141.136C270.087 141.305 270.505 141.639 270.802 142.09C271.099 142.541 271.259 143.084 271.259 143.643C271.259 144.201 271.099 144.745 270.802 145.195C270.505 145.646 270.087 145.98 269.607 146.149C268.522 146.413 267.391 146.321 266.351 145.886C265.827 145.69 265.322 145.436 264.844 145.129C264.602 144.976 263.194 144.124 263.218 143.814C263.355 141.773 264.469 138.774 266.242 137.628Z" fill="white"/>
<path d="M196.303 130.789C197.323 131.733 198.462 132.508 199.683 133.087C201.932 134.129 204.385 134.504 206.804 134.177C209.223 133.85 211.524 132.831 213.481 131.22C214.998 129.937 216.325 128.164 217.894 126.875C218.988 125.924 220.303 125.333 221.686 125.171C222.146 125.186 222.602 125.079 223.018 124.861C224.07 124.135 222.828 122.93 222.719 122.078C222.573 120.715 222.882 119.34 223.587 118.212C225.387 115.233 226.204 111.654 225.897 108.082C225.591 104.511 224.181 101.168 221.906 98.6185C219.631 96.0695 216.632 94.4721 213.417 94.0971C210.202 93.7225 206.969 94.5936 204.267 96.5619C201.598 98.5028 199.617 101.38 197.607 104.131C195.834 106.556 193.981 108.944 192.682 111.716C189.629 118.233 191.412 126.26 196.303 130.789Z" fill="#FE0505"/>
<path d="M214.405 109.307C216.083 109.307 217.444 107.798 217.444 105.936C217.444 104.073 216.083 102.564 214.405 102.564C212.727 102.564 211.367 104.073 211.367 105.936C211.367 107.798 212.727 109.307 214.405 109.307Z" fill="white"/>
<path d="M208.528 117.282C210.206 117.282 211.566 115.772 211.566 113.91C211.566 112.048 210.206 110.538 208.528 110.538C206.85 110.538 205.49 112.048 205.49 113.91C205.49 115.772 206.85 117.282 208.528 117.282Z" fill="white"/>
<path d="M203.015 124.767C204.693 124.767 206.053 123.257 206.053 121.395C206.053 119.533 204.693 118.023 203.015 118.023C201.337 118.023 199.977 119.533 199.977 121.395C199.977 123.257 201.337 124.767 203.015 124.767Z" fill="white"/>
<g opacity="0.46">
<path opacity="0.46" d="M290.89 89.8191C290.653 91.1399 290.153 92.3844 289.426 93.4632C288.699 94.5415 287.765 95.4262 286.69 96.0522L261.35 110.991C260.395 111.557 259.348 111.907 258.269 112.024C257.192 112.139 256.103 112.018 255.068 111.666C254.032 111.314 253.069 110.739 252.234 109.973C251.399 109.207 250.708 108.266 250.202 107.203L230.005 65.0024C228.981 62.8621 228.766 60.3589 229.405 58.0418C230.044 55.7253 231.485 53.7844 233.413 52.6467L258.772 37.7135C262.588 35.4622 267.854 37.1875 269.901 41.4955L290.103 83.6807C291.012 85.559 291.291 87.734 290.89 89.8191Z" fill="#FE0505"/>
</g>
<path d="M283.368 86.6216L258.658 76.17C258.343 76.0343 258.082 75.7786 257.921 75.4494C257.761 75.1196 257.711 74.7372 257.781 74.3711L263.512 45.1202C263.577 44.8088 263.725 44.5269 263.938 44.3118C264.15 44.0961 264.417 43.9572 264.701 43.9136C264.986 43.8694 265.277 43.9225 265.534 44.0656C265.791 44.2087 266.003 44.4354 266.142 44.7152L285.121 84.4072C285.255 84.6896 285.309 85.011 285.275 85.3282C285.241 85.6454 285.121 85.9441 284.931 86.184C284.741 86.4238 284.49 86.5943 284.211 86.6726C283.932 86.7505 283.637 86.7326 283.368 86.6216Z" fill="white"/>
<g opacity="0.46">
<path opacity="0.46" d="M320.278 119.185C320.797 119.598 321.225 120.134 321.532 120.755C321.838 121.376 322.016 122.066 322.051 122.772L322.999 139.494C323.035 140.125 322.958 140.758 322.774 141.356C322.589 141.955 322.299 142.506 321.922 142.98C321.545 143.454 321.087 143.841 320.574 144.118C320.062 144.395 319.505 144.558 318.937 144.596L296.322 146.143C295.176 146.219 294.049 145.788 293.189 144.943C292.329 144.1 291.806 142.911 291.734 141.64L290.809 124.908C290.769 123.645 291.166 122.412 291.921 121.465C292.675 120.518 293.727 119.927 294.862 119.816L317.472 118.238C318.479 118.176 319.473 118.511 320.278 119.185Z" fill="#FE0505"/>
</g>
<path d="M317.273 122.488L307.376 133.361C307.25 133.493 307.086 133.573 306.913 133.586C306.741 133.6 306.569 133.546 306.428 133.435L295.052 124.019C294.93 123.918 294.84 123.777 294.793 123.617C294.745 123.456 294.744 123.283 294.788 123.122C294.832 122.96 294.919 122.818 295.038 122.713C295.157 122.608 295.303 122.546 295.455 122.536L316.728 121.079C316.876 121.075 317.023 121.12 317.149 121.209C317.274 121.298 317.372 121.427 317.431 121.579C317.489 121.73 317.505 121.898 317.477 122.061C317.45 122.223 317.378 122.372 317.273 122.488Z" fill="white"/>
<g opacity="0.46">
<path opacity="0.46" d="M166.702 211.073C165.218 211.344 163.717 211.485 162.213 211.493C147.813 211.493 148.297 196.676 148.297 196.676L160.227 199.537C159.776 198.312 159.604 196.982 159.725 195.665C159.845 194.348 160.256 193.084 160.919 191.984C163.649 187.555 169.992 189.833 169.992 189.833L173.935 187.013L173.082 192.273L178.367 191.285L175.651 194.772C179.301 198.664 183.951 210.515 172.736 216.675C161.521 222.834 156.682 215.454 156.682 215.454L162.213 211.499L166.702 211.073Z" fill="#FE0505"/>
</g>
<path d="M166.465 196.581C167.418 196.581 168.19 195.724 168.19 194.667C168.19 193.609 167.418 192.752 166.465 192.752C165.512 192.752 164.74 193.609 164.74 194.667C164.74 195.724 165.512 196.581 166.465 196.581Z" fill="white"/>
<path d="M196.54 467.487H393.852" stroke="white" stroke-width="3.15" stroke-miterlimit="10"/>
</g>
<defs>
<clipPath id="clip0_17_186">
<rect width="474" height="526" fill="white"/>
</clipPath>
</defs>
</svg>
