<svg width="592" height="596" viewBox="0 0 592 596" fill="none" xmlns="http://www.w3.org/2000/svg">
<path d="M517.284 238.961H410.428C404.987 238.961 400.577 243.401 400.577 248.878V402.712C400.577 408.189 404.987 412.629 410.428 412.629H517.284C522.724 412.629 527.135 408.189 527.135 402.712V248.878C527.135 243.401 522.724 238.961 517.284 238.961Z" stroke="#12BCEE" stroke-width="4.83" stroke-miterlimit="10"/>
<path d="M512.672 256.853H416.336C413.616 256.853 411.41 259.073 411.41 261.811V282.439C411.41 285.178 413.616 287.398 416.336 287.398H512.672C515.392 287.398 517.597 285.178 517.597 282.439V261.811C517.597 259.073 515.392 256.853 512.672 256.853Z" stroke="#12BCEE" stroke-width="4.83" stroke-miterlimit="10"/>
<path d="M463.856 269.719C465.588 269.719 466.993 268.305 466.993 266.56C466.993 264.816 465.588 263.402 463.856 263.402C462.123 263.402 460.718 264.816 460.718 266.56C460.718 268.305 462.123 269.719 463.856 269.719Z" fill="#D7E8F0"/>
<path d="M455.088 280.854C455.088 278.513 456.012 276.268 457.656 274.613C459.3 272.957 461.53 272.028 463.856 272.028C466.181 272.028 468.411 272.957 470.055 274.613C471.7 276.268 472.623 278.513 472.623 280.854H455.088Z" fill="#D7E8F0"/>
<path d="M464.495 320.136C461.153 320.137 457.885 321.136 455.107 323.006C452.328 324.877 450.163 327.535 448.884 330.644C447.606 333.753 447.272 337.175 447.925 340.475C448.578 343.775 450.188 346.806 452.552 349.186C454.916 351.565 457.927 353.185 461.206 353.841C464.484 354.497 467.882 354.16 470.97 352.871C474.058 351.583 476.697 349.403 478.554 346.604C480.412 343.806 481.403 340.517 481.403 337.152C481.403 334.917 480.965 332.703 480.116 330.639C479.265 328.574 478.02 326.697 476.45 325.117C474.88 323.537 473.016 322.284 470.965 321.429C468.914 320.575 466.715 320.135 464.495 320.136ZM464.495 350.061C463.86 350.03 463.262 349.754 462.824 349.291C462.386 348.827 462.141 348.212 462.141 347.573C462.141 346.933 462.386 346.318 462.824 345.855C463.262 345.392 463.86 345.116 464.495 345.085C465.13 345.116 465.728 345.392 466.166 345.855C466.604 346.318 466.849 346.933 466.849 347.573C466.849 348.212 466.604 348.827 466.166 349.291C465.728 349.754 465.13 350.03 464.495 350.061ZM467.615 330.924C467.094 334.613 466.656 338.487 465.561 342.075C465.3 342.939 463.69 342.939 463.429 342.075C462.658 339.377 462.065 336.632 461.653 333.856C461.316 331.836 460.144 328.563 461.263 326.603C462.251 324.815 465.034 324.636 466.65 325.554C468.633 326.68 467.852 329.088 467.615 330.924Z" fill="#D7E8F0"/>
<path d="M279.56 273.44C273.634 271.661 267.318 271.691 261.409 273.526C255.5 275.362 250.265 278.92 246.365 283.751C242.465 288.583 240.076 294.469 239.5 300.668C238.923 306.865 240.185 313.097 243.126 318.573C246.067 324.049 250.555 328.524 256.023 331.432C261.49 334.34 267.691 335.55 273.842 334.91C279.993 334.27 285.817 331.807 290.578 327.835C295.338 323.862 298.822 318.557 300.588 312.591C301.761 308.63 302.148 304.476 301.726 300.364C301.304 296.253 300.082 292.266 298.129 288.63C296.176 284.995 293.532 281.782 290.346 279.176C287.16 276.569 283.495 274.62 279.56 273.44ZM263.854 326.484C262.725 326.109 261.786 325.305 261.235 324.244C260.685 323.183 260.568 321.947 260.907 320.8C261.247 319.653 262.017 318.684 263.055 318.099C264.093 317.515 265.316 317.36 266.465 317.669C267.056 317.828 267.609 318.104 268.091 318.482C268.574 318.859 268.977 319.331 269.275 319.868C269.574 320.405 269.763 320.997 269.829 321.609C269.897 322.22 269.841 322.839 269.667 323.43C269.492 324.019 269.201 324.568 268.812 325.043C268.423 325.517 267.944 325.909 267.402 326.194C266.86 326.479 266.267 326.651 265.658 326.701C265.048 326.75 264.435 326.677 263.854 326.484ZM279.424 294.217C276.565 300.481 273.747 307.114 269.952 312.889C269.04 314.284 266.181 313.426 266.175 311.757C266.224 306.57 266.619 301.394 267.359 296.261C267.821 292.512 267.46 286.087 270.473 283.203C273.149 280.622 278.169 281.73 280.567 284.21C283.45 287.237 280.809 291.094 279.424 294.217Z" fill="#F13F3F"/>
<path d="M192.24 343.129C190.072 345.35 188.607 348.168 188.031 351.228C187.453 354.287 187.79 357.45 188.999 360.317C190.207 363.183 192.233 365.625 194.82 367.332C197.406 369.04 200.437 369.937 203.53 369.91C206.624 369.884 209.639 368.935 212.197 367.182C214.753 365.43 216.737 362.954 217.896 360.067C219.056 357.18 219.339 354.012 218.71 350.963C218.082 347.914 216.569 345.122 214.363 342.938C211.404 340.01 207.411 338.386 203.263 338.421C199.114 338.457 195.149 340.15 192.24 343.129ZM211.859 362.54C211.649 362.756 211.399 362.928 211.122 363.046C210.846 363.164 210.549 363.226 210.249 363.229C209.949 363.232 209.651 363.175 209.373 363.062C209.095 362.949 208.841 362.782 208.627 362.57C208.413 362.358 208.242 362.106 208.125 361.828C208.007 361.55 207.945 361.251 207.942 360.949C207.94 360.647 207.996 360.347 208.109 360.067C208.221 359.787 208.387 359.532 208.597 359.316C209.022 358.88 209.601 358.633 210.207 358.627C210.814 358.622 211.397 358.859 211.83 359.286C212.262 359.713 212.508 360.297 212.514 360.907C212.519 361.517 212.284 362.105 211.859 362.54ZM201.339 348.063C203.417 350.805 205.673 353.612 207.313 356.664C207.709 357.397 206.667 358.452 205.933 358.082C203.672 356.84 201.497 355.446 199.421 353.91C197.876 352.831 194.975 351.484 194.413 349.464C193.904 347.676 195.597 345.685 197.219 345.215C199.214 344.63 200.286 346.71 201.339 348.063Z" fill="#F13F3F"/>
<path d="M422.031 301.034H504.597" stroke="#12BCEE" stroke-width="4.83" stroke-miterlimit="10"/>
<path d="M422.031 309.217H504.597" stroke="#12BCEE" stroke-width="4.83" stroke-miterlimit="10"/>
<path d="M422.031 361.903H504.597" stroke="#12BCEE" stroke-width="4.83" stroke-miterlimit="10"/>
<path d="M441.206 369.646H485.416" stroke="#12BCEE" stroke-width="4.83" stroke-miterlimit="10"/>
<path d="M527.14 351.163C534.422 360.377 541.348 371.796 547.612 385.868C585.748 471.608 538.081 515.122 538.081 515.122" stroke="#9F9F9F" stroke-width="4.83" stroke-miterlimit="10"/>
<path d="M128.813 419.15C128.813 419.15 72.224 354.526 142.79 322.527C213.357 290.527 227.328 286.081 222.237 252.795C217.146 219.508 257.165 185.613 320.1 208.011C383.036 230.409 384.297 272.618 379.833 305.249C377.299 323.85 387.784 328.32 400.553 327.384" stroke="#9F9F9F" stroke-width="4.83" stroke-miterlimit="10"/>
<path d="M523.15 543.01C523.007 546.578 522.09 550.07 520.463 553.244C520.399 553.401 520.324 553.555 520.238 553.702C517.384 558.863 513.393 563.296 508.57 566.66L508.398 566.779C504.044 569.71 499.147 571.728 494 572.709H548.784C548.784 572.709 541.455 467.485 474.097 416.289C408.912 366.749 347.883 390.625 344.011 392.222C345.211 395.631 345.747 399.241 345.592 402.855C345.592 402.855 350.494 405.424 351.311 414.62C352.128 423.816 353.833 449.385 337.44 454.2C337.44 454.2 322.723 453.837 318.834 448.151C314.944 442.465 314.009 443.621 312.481 445.064C311.297 446.154 304.152 450.052 300.854 451.84C301.271 451.86 301.685 451.918 302.092 452.013C302.092 452.013 303.98 468.057 327.086 493.203C327.869 494.033 328.608 494.904 329.3 495.813C332.789 498.884 336.71 502.019 341.063 505.218L367.431 524.642C368.026 525.151 368.731 525.512 369.491 525.696C370.966 526.071 372.508 526.085 373.99 525.738C377.057 525.142 397.996 522.991 411.547 521.632C411.854 521.632 412.18 521.572 412.482 521.536L414.258 521.364C414.542 521.364 414.85 521.304 415.099 521.286L416.697 521.131C417.478 521.054 418.183 520.976 418.834 520.922L420.61 520.75C422.179 520.595 423.108 520.499 423.185 520.499C426.414 520.407 429.632 520.092 432.817 519.558C435.866 518.962 438.648 518.002 439.371 516.411C439.507 516.075 439.558 515.71 439.519 515.35C439.355 514.337 438.935 513.385 438.299 512.584C435.517 508.824 429.052 505.599 428.578 505.367C428.565 505.362 428.551 505.362 428.537 505.367L428.407 505.272L389.927 475.174H389.885C389.885 475.174 395.681 412.927 448.493 428.244C448.493 428.244 448.742 428.417 449.198 428.799C451.258 430.396 457.74 435.689 467.272 445.576C467.52 445.844 467.787 446.113 468.053 446.399C469.065 447.436 470.06 448.514 471.049 449.569C477.738 456.769 485.653 465.941 494.385 477.379L494.444 477.438C504.449 490.55 511.66 502.566 516.348 513.198V513.234C521.422 524.791 523.559 534.69 523.139 542.587C523.152 542.728 523.156 542.869 523.15 543.01ZM363.861 436.022C362.298 417.886 371.066 411.318 371.557 410.955C359.09 433.662 382.213 468.469 383.024 469.815C382.361 469.255 365.424 454.153 363.861 436.022Z" fill="#472BF2"/>
<path d="M330.744 432.464C330.096 432.945 329.42 433.386 328.72 433.787L324.659 426.635C334.024 421.814 336.653 413.315 332.532 408.648C331.38 407.371 329.895 406.446 328.246 405.978C324.102 404.714 321.231 406.574 319.283 409.071C317.694 411.242 316.528 413.697 315.85 416.307L313.872 393.349L313.718 391.561C313.718 391.561 309.409 389.409 297.734 391.328C286.06 393.247 283.911 399.738 278.897 396.859C273.883 393.98 271.041 394.213 271.041 394.213C269.614 399.487 265.796 399.487 265.796 399.487C264.892 399.377 264.003 399.16 263.15 398.838C257.733 393.825 256.265 385.13 256.265 385.13C261.948 384.421 262.386 378.914 261.735 374.402C264.884 376.285 269.324 376.416 275.558 372.387C293.442 360.873 311.783 367.107 318.23 368.066C321.107 368.489 324.256 367.47 326.867 366.278C327.204 366.887 327.674 367.41 328.24 367.81C332.592 370.862 336.181 374.889 338.725 379.575C355.508 411.157 337.108 427.929 330.744 432.464Z" fill="#F13F3F"/>
<path d="M263.748 572.72H270.497C273.383 572.717 276.15 571.56 278.191 569.506C280.232 567.451 281.38 564.665 281.383 561.759V554.154C281.383 553.461 281.248 552.775 280.984 552.134C280.72 551.494 280.334 550.912 279.847 550.422C279.359 549.932 278.782 549.544 278.145 549.28C277.509 549.014 276.827 548.879 276.138 548.88H235.776C235.777 550.498 235.461 552.102 234.847 553.597C234.232 555.093 233.33 556.452 232.193 557.596C231.056 558.74 229.705 559.648 228.219 560.266C226.734 560.884 225.141 561.201 223.533 561.199H77.6821C77.6839 564.254 78.8898 567.183 81.0358 569.343C83.1812 571.504 86.0909 572.718 89.1255 572.72H286.853C287.112 572.72 287.368 572.67 287.607 572.571C287.845 572.471 288.062 572.326 288.245 572.142C288.428 571.958 288.573 571.739 288.671 571.499C288.769 571.259 288.82 571.001 288.819 570.741V558.398C288.819 555.999 289.765 553.7 291.449 552.004C293.133 550.309 295.418 549.356 297.8 549.356C300.181 549.356 302.466 550.309 304.15 552.004C305.834 553.7 306.78 555.999 306.78 558.398V570.741C306.78 571 306.829 571.258 306.928 571.498C307.026 571.737 307.17 571.956 307.352 572.14C307.534 572.323 307.75 572.469 307.988 572.569C308.226 572.668 308.482 572.72 308.74 572.72H548.784C548.784 572.72 541.455 467.472 474.097 416.282C408.912 366.742 347.883 390.618 344.011 392.215L343.822 392.287" stroke="white" stroke-width="4.83" stroke-miterlimit="10"/>
<path d="M276.517 417.975C276.515 418.636 276.318 419.283 275.951 419.832C275.584 420.381 275.064 420.809 274.456 421.06C273.848 421.312 273.181 421.377 272.536 421.247C271.891 421.117 271.3 420.797 270.836 420.33C270.371 419.861 270.055 419.265 269.927 418.615C269.799 417.966 269.864 417.294 270.116 416.683C270.367 416.071 270.793 415.548 271.338 415.18C271.885 414.812 272.527 414.615 273.184 414.613C273.442 414.615 273.698 414.647 273.948 414.709C273.603 414.818 273.303 415.036 273.09 415.33C272.876 415.624 272.762 415.978 272.764 416.342C272.762 416.57 272.805 416.796 272.891 417.008C272.976 417.219 273.103 417.412 273.262 417.574C273.422 417.736 273.612 417.865 273.821 417.953C274.03 418.042 274.254 418.087 274.481 418.088C274.895 418.08 275.294 417.926 275.607 417.652C275.921 417.379 276.13 417.004 276.198 416.592C276.402 417.025 276.511 417.496 276.517 417.975Z" fill="white"/>
<path d="M299.611 418.909C299.612 419.574 299.418 420.225 299.051 420.779C298.685 421.332 298.164 421.764 297.554 422.019C296.944 422.275 296.273 422.342 295.625 422.213C294.977 422.084 294.381 421.764 293.913 421.295C293.446 420.825 293.128 420.226 292.998 419.573C292.869 418.921 292.935 418.245 293.187 417.63C293.44 417.016 293.868 416.491 294.417 416.121C294.966 415.751 295.612 415.554 296.272 415.554C296.432 415.553 296.591 415.571 296.746 415.607C296.451 415.745 296.201 415.964 296.026 416.24C295.85 416.515 295.757 416.836 295.757 417.163C295.737 417.622 295.898 418.07 296.205 418.408C296.513 418.747 296.942 418.949 297.397 418.969C297.852 418.99 298.297 418.827 298.634 418.518C298.97 418.208 299.171 417.777 299.191 417.318C299.464 417.804 299.609 418.351 299.611 418.909Z" fill="white"/>
<path d="M326.245 361.558C325.861 364.169 326.34 366.457 328.246 367.816C332.598 370.868 336.187 374.895 338.731 379.581C358.752 417.242 328.72 433.817 328.72 433.817L324.659 426.665C336.351 420.657 337.547 408.892 328.246 406.008C318.946 403.123 315.85 416.336 315.85 416.336L313.719 391.573C313.719 391.573 309.409 389.421 297.735 391.34C286.06 393.259 283.911 399.75 278.897 396.871C273.883 393.992 271.041 394.225 271.041 394.225C269.615 399.499 265.796 399.499 265.796 399.499C254.607 398.063 251.979 382.478 251.979 382.478C257.656 381.762 258.094 376.255 257.449 371.75C260.593 373.633 265.039 373.77 271.272 369.735C289.157 358.22 307.497 364.461 313.938 365.42C318.39 366.07 323.499 363.328 326.245 361.558Z" stroke="white" stroke-width="4.83" stroke-linecap="round" stroke-linejoin="round"/>
<path d="M336.57 548.32L340.992 546.532L344.307 555.538L343.786 571.88L339.305 572.696L322.297 571.957C322.297 571.957 323.481 561.992 327.098 557.254C330.715 552.516 336.57 548.32 336.57 548.32Z" fill="#F13F3F"/>
<path d="M259.13 405.006C259.13 405.006 263.659 396.823 273.19 397.676" stroke="white" stroke-width="4.83" stroke-miterlimit="10"/>
<path d="M291.856 397.674C291.856 397.674 302.749 395.212 306.561 401.309" stroke="white" stroke-width="4.83" stroke-miterlimit="10"/>
<path d="M308.734 434.722C308.734 434.722 302.222 430.926 297.456 437.309" stroke="white" stroke-width="4.83" stroke-miterlimit="10"/>
<path d="M267.584 398.987C267.584 398.987 262.949 453.884 297.516 452.871C303.436 452.698 309.32 448.783 314.944 442.483" stroke="white" stroke-width="4.83" stroke-miterlimit="10"/>
<path d="M328.72 447.476L314.944 442.482C314.944 442.482 318.36 453.472 335.279 454.312C352.199 455.153 357.876 416.061 345.444 400.333" stroke="white" stroke-width="4.83" stroke-linejoin="round"/>
<path d="M382.58 557.604C382.58 557.604 369.953 567.921 378.531 572.719" stroke="white" stroke-width="4.83" stroke-miterlimit="10"/>
<path d="M372.812 548.004C372.812 548.004 350.908 560.484 369.716 572.72" stroke="white" stroke-width="4.83" stroke-miterlimit="10"/>
<path d="M365.424 538.409C365.424 538.409 336.351 552.117 358.752 572.721" stroke="white" stroke-width="4.83" stroke-miterlimit="10"/>
<path d="M487.684 572.72C487.684 572.72 522.955 572.72 523.429 538.408C523.902 504.096 455.035 417.938 410.469 405.953C365.903 393.967 363.991 426.813 363.991 428.16C363.991 429.507 361.374 443.656 372.812 458.753C381.645 470.422 420.657 499.555 437.967 512.214C438.603 512.68 439.083 513.329 439.344 514.076C439.604 514.823 439.632 515.632 439.424 516.395C439.217 517.159 438.783 517.841 438.182 518.35C437.58 518.859 436.838 519.172 436.055 519.247L359.498 526.649H359.45C358.728 526.78 331.709 531.798 323.481 540.321C323.481 540.321 318.869 543.76 321.255 549.041C323.64 554.321 330.969 552.581 331.171 552.384" stroke="white" stroke-width="4.83" stroke-miterlimit="10"/>
<path opacity="0.26" d="M296.278 425.144C301.542 425.144 305.809 420.848 305.809 415.548C305.809 410.249 301.542 405.953 296.278 405.953C291.014 405.953 286.747 410.249 286.747 415.548C286.747 420.848 291.014 425.144 296.278 425.144Z" fill="white"/>
<path opacity="0.26" d="M272.089 424.196C277.353 424.196 281.62 419.9 281.62 414.601C281.62 409.301 277.353 405.005 272.089 405.005C266.825 405.005 262.558 409.301 262.558 414.601C262.558 419.9 266.825 424.196 272.089 424.196Z" fill="white"/>
<path d="M354.478 546.807C351.127 545.865 345.651 545.019 340.009 546.843C337.251 547.737 334.705 549.196 332.532 551.128C332.059 551.545 331.603 551.968 331.165 552.391C330.221 553.323 329.329 554.308 328.495 555.341C328.385 555.478 328.229 555.569 328.057 555.598C325.955 555.89 312.12 558.095 312.191 565.134C312.256 571.457 319.135 572.494 321.503 572.661C321.601 572.67 321.699 572.659 321.792 572.628C321.885 572.596 321.971 572.546 322.044 572.48C322.117 572.414 322.175 572.333 322.216 572.243C322.256 572.154 322.278 572.056 322.279 571.958C322.279 569.705 322.788 562.642 328.323 555.538" stroke="white" stroke-width="4.83" stroke-miterlimit="10"/>
<path d="M229.826 497.129C231.448 510.295 221.284 516.249 210.172 517.131" stroke="white" stroke-width="4.83" stroke-miterlimit="10"/>
<path d="M194.022 514.384C189.785 512.08 186.353 508.52 184.191 504.189C182.029 499.856 181.241 494.96 181.933 490.162C183.709 477.497 194.365 467.783 204.796 461.62C226.7 448.681 276.061 458.044 284.355 459.951C290.713 461.417 296.03 456.411 298.184 453.991C298.276 453.889 298.395 453.814 298.527 453.778C298.659 453.741 298.798 453.743 298.929 453.784C299.06 453.825 299.177 453.902 299.265 454.008C299.353 454.113 299.41 454.241 299.428 454.378C303.98 481.198 356.852 517.602 369.082 525.749" stroke="white" stroke-width="4.83" stroke-miterlimit="10"/>
<path d="M243.164 488.024L225.659 498.96C224.615 499.614 223.447 500.041 222.231 500.213C221.014 500.384 219.775 500.297 218.593 499.956C217.411 499.616 216.314 499.03 215.371 498.237C214.428 497.443 213.662 496.459 213.12 495.349C212.144 493.354 211.95 491.062 212.578 488.93C213.205 486.798 214.608 484.983 216.506 483.846L243.146 467.867" stroke="white" stroke-width="4.83" stroke-miterlimit="10"/>
<path d="M296.278 425.144C301.542 425.144 305.809 420.848 305.809 415.548C305.809 410.249 301.542 405.953 296.278 405.953C291.014 405.953 286.747 410.249 286.747 415.548C286.747 420.848 291.014 425.144 296.278 425.144Z" stroke="white" stroke-width="4.83" stroke-miterlimit="10"/>
<path d="M272.089 422.76C276.565 422.76 280.194 419.107 280.194 414.601C280.194 410.094 276.565 406.442 272.089 406.442C267.613 406.442 263.985 410.094 263.985 414.601C263.985 419.107 267.613 422.76 272.089 422.76Z" stroke="white" stroke-width="4.83" stroke-miterlimit="10"/>
<path d="M272.089 424.196C277.353 424.196 281.62 419.9 281.62 414.601C281.62 409.301 277.353 405.005 272.089 405.005C266.825 405.005 262.558 409.301 262.558 414.601C262.558 419.9 266.825 424.196 272.089 424.196Z" stroke="white" stroke-width="4.83" stroke-miterlimit="10"/>
<path d="M286.794 414.602H281.62" stroke="white" stroke-width="4.83" stroke-miterlimit="10"/>
<path d="M286.794 428.161H283.384C283.17 428.161 282.958 428.114 282.764 428.022C282.57 427.93 282.398 427.796 282.261 427.63C282.124 427.464 282.026 427.269 281.972 427.06C281.919 426.851 281.912 426.633 281.952 426.421L284.207 414.602" stroke="white" stroke-width="4.83" stroke-miterlimit="10"/>
<path d="M218.377 460.911C218.377 460.911 206.223 463.551 201.937 482.027C199.332 493.244 195.757 507.554 193.353 517.066C193.045 518.286 193.017 519.561 193.273 520.793C193.528 522.026 194.061 523.183 194.828 524.177C195.596 525.171 196.578 525.976 197.701 526.529C198.825 527.083 200.059 527.371 201.31 527.371C203.177 527.371 204.989 526.731 206.446 525.555C207.903 524.379 208.919 522.739 209.325 520.904L214.411 497.934" stroke="white" stroke-width="4.83" stroke-miterlimit="10"/>
<path d="M229.489 504.098C229.489 504.098 242.246 496.421 267.377 504.098C292.507 511.774 321.397 516.984 330.928 496.624" stroke="white" stroke-width="4.83" stroke-miterlimit="10"/>
<path d="M340.015 546.842C340.015 546.842 348.895 557.045 343.496 572.72" stroke="white" stroke-width="4.83" stroke-miterlimit="10"/>
<path d="M46.5786 419.959H186.883C191.402 419.953 195.792 421.478 199.345 424.289C202.898 427.1 205.409 431.033 206.472 435.455L228.808 528.586C229.411 531.099 229.439 533.717 228.891 536.242C228.344 538.768 227.234 541.136 225.646 543.167C224.057 545.198 222.031 546.84 219.721 547.969C217.411 549.098 214.877 549.684 212.309 549.684H72.3661C67.8556 549.688 63.4742 548.167 59.9252 545.365C56.3764 542.563 53.8651 538.641 52.7946 534.23L30.0973 441.117C29.4844 438.601 29.4476 435.978 29.9895 433.446C30.5315 430.915 31.6381 428.54 33.2257 426.502C34.8133 424.463 36.8404 422.816 39.1536 421.682C41.4669 420.548 44.0059 419.96 46.5786 419.959Z" fill="#F13F3F"/>
<path d="M51.6876 423.966H183.325C187.565 423.971 191.681 425.409 195.014 428.049C198.347 430.689 200.703 434.378 201.706 438.526L222.675 525.894C223.241 528.251 223.269 530.706 222.755 533.076C222.242 535.446 221.201 537.667 219.711 539.573C218.221 541.479 216.321 543.019 214.154 544.078C211.986 545.137 209.609 545.687 207.2 545.687H75.8827C71.6552 545.678 67.552 544.245 64.2268 541.618C60.9009 538.99 58.5439 535.318 57.5307 531.186L36.2187 443.813C35.6432 441.452 35.6085 438.991 36.1173 436.615C36.626 434.239 37.6648 432.011 39.1551 430.099C40.6454 428.187 42.5482 426.641 44.7194 425.578C46.8906 424.516 49.2735 423.964 51.6876 423.966Z" fill="#F13F3F"/>
<path d="M46.5786 419.959H186.883C191.402 419.953 195.792 421.478 199.345 424.289C202.898 427.1 205.409 431.033 206.472 435.455L228.808 528.586C229.411 531.099 229.439 533.717 228.891 536.242C228.344 538.768 227.234 541.136 225.646 543.167C224.057 545.198 222.031 546.84 219.721 547.969C217.411 549.098 214.877 549.684 212.309 549.684H72.3661C67.8556 549.688 63.4742 548.167 59.9252 545.365C56.3764 542.563 53.8651 538.641 52.7946 534.23L30.0973 441.117C29.4844 438.601 29.4476 435.978 29.9895 433.446C30.5315 430.915 31.6381 428.54 33.2257 426.502C34.8133 424.463 36.8404 422.816 39.1536 421.682C41.4669 420.548 44.0059 419.96 46.5786 419.959Z" stroke="white" stroke-width="4.83" stroke-miterlimit="10"/>
<path d="M112.291 481.991L103.926 442.733C103.752 441.902 103.3 441.157 102.646 440.623C101.992 440.088 101.175 439.796 100.332 439.794H58.9396C58.3828 439.796 57.8336 439.925 57.3336 440.172C56.8337 440.418 56.396 440.776 56.0537 441.218C55.7115 441.66 55.4737 442.175 55.3583 442.724C55.2429 443.272 55.2529 443.84 55.3876 444.384L65.0668 484.101C65.187 484.655 65.4433 485.169 65.8127 485.597C66.1443 486.021 66.5664 486.364 67.0482 486.601C67.5301 486.837 68.0594 486.961 68.5951 486.962H68.6721L108.733 486.485C109.274 486.477 109.806 486.349 110.292 486.11C110.778 485.871 111.206 485.527 111.545 485.102C111.89 484.671 112.136 484.169 112.265 483.631C112.394 483.093 112.403 482.533 112.291 481.991ZM58.1523 443.68C58.1223 443.563 58.1194 443.44 58.144 443.321C58.1687 443.202 58.2201 443.091 58.2943 442.995C58.3703 442.895 58.468 442.814 58.5799 442.759C58.6917 442.703 58.8148 442.674 58.9396 442.673H100.332C100.519 442.672 100.7 442.736 100.844 442.855C100.989 442.973 101.088 443.139 101.126 443.323L107.495 473.224C86.2249 452.549 83.8155 476.27 83.8155 476.27C71.8097 469.976 68.3406 476.866 67.3342 481.401L58.1523 443.68Z" fill="#D7E8F0"/>
<path d="M70.1047 457.931C72.4135 457.21 73.5087 454.129 72.5615 451.047C71.6143 447.966 68.9681 446.059 66.6415 446.78C64.315 447.501 63.2375 450.583 64.1906 453.658C65.1438 456.733 67.8018 458.652 70.1047 457.931Z" fill="#D7E8F0"/>
<path d="M80.2398 457.227H93.8203C95.5075 457.227 97.2006 457.227 98.8878 457.227H99.1305C99.6053 457.24 100.078 457.151 100.516 456.965C100.818 456.814 101.076 456.585 101.261 456.301C101.447 456.017 101.554 455.688 101.573 455.349C101.59 455.009 101.519 454.671 101.364 454.368C101.21 454.066 100.978 453.81 100.693 453.628C100.374 453.481 100.084 453.28 99.835 453.032C99.6704 452.77 99.5574 452.478 99.5035 452.173C99.1897 451.311 98.5841 450.587 97.7926 450.129C97.2166 449.739 96.5689 449.47 95.887 449.338C95.2056 449.206 94.5046 449.214 93.8262 449.36C93.1567 449.531 92.5439 449.876 92.0502 450.361C91.6299 450.779 91.547 451.339 91.2214 451.804C91.0083 452.108 90.8721 452.012 90.582 451.845C90.292 451.679 90.1321 451.553 89.8953 451.434C89.4282 451.183 88.9434 450.966 88.4449 450.785C87.4296 450.406 86.3469 450.246 85.2659 450.314C83.3656 450.463 81.4712 451.601 80.8081 453.401C80.2108 453.409 79.6354 453.632 79.1866 454.028C78.7373 454.424 78.4431 454.97 78.3572 455.565C78.3182 455.794 78.333 456.03 78.4005 456.252C78.4685 456.475 78.5875 456.678 78.748 456.846C79.1795 457.158 79.7123 457.294 80.2398 457.227Z" fill="#D7E8F0"/>
<path d="M177.6 456.38L176.511 451.868C175.78 448.835 174.058 446.138 171.62 444.209C169.183 442.28 166.173 441.233 163.072 441.235H148.113C146.406 441.234 144.722 441.628 143.191 442.389C141.66 443.149 140.325 444.255 139.288 445.62C138.251 446.985 137.541 448.573 137.213 450.259C136.885 451.945 136.949 453.685 137.397 455.343L138.635 459.926C139.425 462.875 141.159 465.479 143.568 467.336C145.977 469.192 148.927 470.197 151.961 470.195H166.832C168.511 470.194 170.169 469.808 171.679 469.068C173.189 468.327 174.513 467.251 175.549 465.921C176.587 464.591 177.31 463.041 177.665 461.388C178.02 459.735 177.998 458.023 177.6 456.38ZM161.148 457.494L156.039 460.659C155.843 460.785 155.62 460.864 155.388 460.888C155.156 460.912 154.921 460.883 154.703 460.8C154.484 460.719 154.288 460.586 154.128 460.415C153.969 460.244 153.851 460.037 153.784 459.813L151.86 453.483C151.779 453.203 151.779 452.904 151.86 452.623C151.942 452.343 152.1 452.09 152.317 451.897C152.535 451.704 152.804 451.576 153.09 451.53C153.377 451.484 153.671 451.521 153.938 451.636L161.024 454.789C161.277 454.904 161.495 455.086 161.652 455.317C161.809 455.547 161.9 455.817 161.916 456.096C161.931 456.376 161.869 456.653 161.739 456.9C161.607 457.147 161.411 457.352 161.172 457.494H161.148Z" fill="white"/>
<path d="M174.261 496.908H148.089C146.891 496.906 145.719 496.553 144.716 495.893C143.713 495.233 142.923 494.293 142.441 493.189C142.292 492.849 142.211 492.482 142.204 492.11C142.211 491.391 142.498 490.704 143.005 490.198C143.511 489.691 144.196 489.406 144.91 489.404H172.734C171.425 491.633 172.088 494.715 174.261 496.908Z" fill="#D7E8F0"/>
<path d="M191.216 494.202C191.214 494.92 190.931 495.607 190.427 496.114C189.924 496.621 189.241 496.907 188.528 496.908H174.261C172.089 494.715 171.426 491.633 172.734 489.404H185.296C186.493 489.405 187.662 489.755 188.665 490.412C189.667 491.069 190.459 492.005 190.944 493.105C191.108 493.449 191.2 493.822 191.216 494.202Z" fill="#F13F3F"/>
<path d="M184.639 496.908C184.565 497.052 184.48 497.19 184.384 497.32C182.514 499.888 178.464 500.127 175.321 497.814C174.946 497.54 174.591 497.237 174.261 496.908C172.089 494.715 171.426 491.634 172.734 489.405C172.807 489.263 172.893 489.128 172.988 489C174.841 486.413 178.908 486.186 182.034 488.481C182.413 488.762 182.771 489.071 183.106 489.405C185.296 491.598 185.93 494.679 184.639 496.908Z" fill="white"/>
<path d="M197.77 510.773C197.763 511.491 197.476 512.179 196.969 512.685C196.462 513.192 195.778 513.477 195.064 513.478H91.3339C92.66 511.238 91.9969 508.168 89.8184 505.981H191.885C193.082 505.98 194.254 506.331 195.255 506.991C196.258 507.65 197.047 508.589 197.527 509.694C197.68 510.033 197.763 510.4 197.77 510.773Z" fill="#F13F3F"/>
<path d="M91.3337 513.448H78.4104C77.2139 513.449 76.0435 513.099 75.0407 512.441C74.0384 511.785 73.2469 510.848 72.7627 509.747C72.6105 509.402 72.53 509.028 72.5259 508.65C72.5253 508.295 72.594 507.943 72.7289 507.615C72.8639 507.287 73.0616 506.989 73.3115 506.738C73.5613 506.486 73.8579 506.288 74.1847 506.152C74.5109 506.018 74.8607 505.949 75.2136 505.95H89.8182C91.9968 508.138 92.6598 511.207 91.3337 513.448Z" fill="#D7E8F0"/>
<path d="M91.3338 513.448C91.2728 513.595 91.1935 513.733 91.097 513.859C89.244 516.446 85.177 516.666 82.0453 514.372C81.6682 514.091 81.3118 513.782 80.9797 513.448C78.8189 511.255 78.1559 508.191 79.4464 505.95C79.5181 505.806 79.6033 505.668 79.701 505.539C81.5717 502.97 85.621 502.732 88.7645 505.039C89.1398 505.313 89.4921 505.618 89.8183 505.95C91.9968 508.138 92.6599 511.207 91.3338 513.448Z" fill="white"/>
<path d="M100.486 529.845H84.064C82.8682 529.843 81.6978 529.494 80.6956 528.836C79.6933 528.179 78.9018 527.244 78.4164 526.143C78.2536 525.811 78.1606 525.447 78.144 525.077C78.1458 524.357 78.4306 523.667 78.9367 523.157C79.4423 522.647 80.1278 522.361 80.8436 522.359H98.941C97.68 524.612 98.3253 527.675 100.486 529.845Z" fill="#F13F3F"/>
<path d="M203.399 527.181C203.39 527.896 203.099 528.578 202.591 529.078C202.083 529.577 201.398 529.853 200.688 529.845H100.486C98.3253 527.652 97.6622 524.588 98.9528 522.348H197.515C198.712 522.347 199.883 522.698 200.885 523.358C201.887 524.017 202.677 524.956 203.157 526.061C203.313 526.413 203.396 526.795 203.399 527.181Z" fill="#D7E8F0"/>
<path d="M110.858 529.845C110.786 529.989 110.701 530.127 110.603 530.256C108.75 532.842 104.683 533.063 101.558 530.768C101.179 530.488 100.821 530.179 100.486 529.845C98.3253 527.651 97.6622 524.588 98.9528 522.347C99.0268 522.204 99.112 522.066 99.2073 521.936C101.078 519.367 105.127 519.14 108.271 521.435C108.647 521.709 109 522.014 109.325 522.347C111.503 524.558 112.166 527.639 110.858 529.845Z" fill="white"/>
<g opacity="0.21">
<path opacity="0.21" d="M113.723 483.426L105.376 444.168C105.203 443.338 104.751 442.593 104.097 442.059C103.442 441.525 102.625 441.234 101.783 441.235H60.384C59.8233 441.235 59.2704 441.365 58.7674 441.614C58.2645 441.862 57.8251 442.225 57.4832 442.672C57.1441 443.11 56.9091 443.62 56.7962 444.163C56.6833 444.707 56.6956 445.269 56.832 445.807L66.5112 485.53C66.6296 486.083 66.8835 486.598 67.2512 487.026C67.5839 487.45 68.0077 487.793 68.4902 488.028C68.9733 488.263 69.5031 488.385 70.0395 488.385H70.1342L110.189 487.902C110.729 487.896 111.26 487.769 111.745 487.531C112.231 487.293 112.658 486.949 112.995 486.526C113.335 486.095 113.577 485.593 113.703 485.058C113.829 484.522 113.836 483.965 113.723 483.426ZM59.5788 445.121C59.5486 445.003 59.5463 444.88 59.5723 444.761C59.5978 444.642 59.6511 444.531 59.7268 444.436C59.8008 444.336 59.8973 444.254 60.0086 444.199C60.1193 444.143 60.2419 444.114 60.3662 444.114H101.759C101.945 444.113 102.126 444.176 102.272 444.293C102.418 444.41 102.518 444.574 102.558 444.758L108.928 474.659C87.6515 453.978 85.248 477.705 85.248 477.705C73.2481 471.411 69.7731 478.301 68.7726 482.836L59.5788 445.121Z" fill="#D7E8F0"/>
<path opacity="0.21" d="M71.5373 459.367C73.8402 458.646 74.9413 455.565 73.9882 452.489C73.0351 449.414 70.4007 447.495 68.0682 448.216C65.7357 448.937 64.6642 452.018 65.6114 455.1C66.5586 458.181 69.264 460.112 71.5373 459.367Z" fill="#D7E8F0"/>
<path opacity="0.21" d="M81.696 458.668H95.2705C96.9637 458.668 98.6509 458.668 100.344 458.668H100.581C101.056 458.682 101.528 458.592 101.966 458.406C102.27 458.256 102.529 458.027 102.716 457.743C102.903 457.459 103.011 457.13 103.029 456.79C103.047 456.45 102.974 456.11 102.819 455.808C102.663 455.505 102.43 455.25 102.144 455.068C101.828 454.917 101.538 454.716 101.285 454.472C101.125 454.206 101.014 453.914 100.954 453.608C100.64 452.748 100.037 452.027 99.2488 451.57C98.6728 451.179 98.0233 450.909 97.3408 450.776C96.6582 450.644 95.9561 450.652 95.2765 450.801C94.6182 450.972 94.0173 451.318 93.536 451.802C93.1097 452.219 93.0328 452.773 92.7072 453.244C92.4941 453.548 92.3579 453.453 92.0678 453.28C91.7777 453.107 91.6179 452.994 91.3811 452.869C90.914 452.619 90.4292 452.405 89.9307 452.225C88.9154 451.845 87.8326 451.683 86.7517 451.748C84.8513 451.897 82.9569 453.042 82.288 454.836C81.6907 454.846 81.1164 455.069 80.6683 455.467C80.2201 455.864 79.9277 456.41 79.843 457.005C79.8045 457.234 79.8199 457.469 79.8862 457.692C79.9531 457.913 80.0698 458.117 80.2278 458.286C80.6552 458.588 81.1768 458.724 81.696 458.668Z" fill="#D7E8F0"/>
<path opacity="0.21" d="M179.056 457.816L177.967 453.31C177.235 450.276 175.512 447.578 173.074 445.648C170.636 443.719 167.624 442.671 164.523 442.672H149.539C147.834 442.671 146.152 443.065 144.623 443.825C143.094 444.584 141.76 445.688 140.724 447.051C139.687 448.414 138.977 449.999 138.647 451.683C138.318 453.367 138.378 455.105 138.824 456.761L140.061 461.35C140.853 464.3 142.588 466.905 144.998 468.761C147.408 470.617 150.358 471.622 153.393 471.62H168.264C169.944 471.62 171.602 471.237 173.114 470.498C174.625 469.76 175.951 468.685 176.99 467.356C178.029 466.027 178.755 464.478 179.112 462.826C179.471 461.173 179.452 459.461 179.056 457.816ZM162.599 458.919L157.472 462.101C157.275 462.228 157.053 462.306 156.821 462.33C156.59 462.355 156.356 462.325 156.138 462.243C155.92 462.161 155.723 462.029 155.564 461.858C155.406 461.686 155.289 461.48 155.222 461.255L153.328 454.92C153.249 454.64 153.25 454.342 153.331 454.062C153.413 453.782 153.572 453.532 153.79 453.338C154.007 453.146 154.274 453.019 154.56 452.973C154.846 452.927 155.139 452.964 155.406 453.078L162.439 456.225C162.689 456.341 162.902 456.523 163.057 456.752C163.212 456.981 163.303 457.248 163.319 457.524C163.335 457.8 163.277 458.076 163.15 458.322C163.023 458.567 162.832 458.773 162.599 458.919Z" fill="#D7E8F0"/>
<path opacity="0.21" d="M175.694 498.344H149.521C148.324 498.341 147.153 497.989 146.15 497.33C145.148 496.671 144.357 495.733 143.874 494.631C143.689 494.219 143.611 493.767 143.646 493.317C143.681 492.867 143.829 492.433 144.075 492.055C144.321 491.678 144.658 491.369 145.055 491.158C145.451 490.946 145.894 490.839 146.342 490.846H174.166C172.864 493.069 173.515 496.156 175.694 498.344Z" fill="#D7E8F0"/>
<path opacity="0.21" d="M192.613 495.637C192.613 496.354 192.331 497.041 191.828 497.549C191.325 498.056 190.643 498.342 189.931 498.343H175.694C173.515 496.156 172.852 493.068 174.16 490.845H186.729C187.925 490.845 189.096 491.194 190.099 491.851C191.102 492.508 191.893 493.445 192.376 494.546C192.528 494.89 192.608 495.262 192.613 495.637Z" fill="#F13F3F"/>
<path opacity="0.21" d="M186.065 498.344C185.996 498.49 185.91 498.628 185.811 498.755C183.94 501.324 179.891 501.563 176.747 499.256C176.373 498.979 176.021 498.675 175.694 498.344C173.515 496.157 172.852 493.07 174.16 490.846C174.234 490.702 174.321 490.564 174.421 490.435C176.274 487.849 180.341 487.628 183.467 489.923C183.846 490.203 184.204 490.512 184.538 490.846C186.699 493.04 187.362 496.103 186.065 498.344Z" fill="white"/>
<path opacity="0.21" d="M199.196 512.182C199.19 512.9 198.902 513.588 198.395 514.093C197.889 514.598 197.204 514.882 196.491 514.882H92.7663C94.0923 512.641 93.4293 509.578 91.2507 507.384H193.312C194.51 507.384 195.683 507.736 196.686 508.397C197.689 509.057 198.479 509.998 198.959 511.103C199.111 511.443 199.192 511.81 199.196 512.182Z" fill="#F13F3F"/>
<path opacity="0.21" d="M92.7664 514.882H79.8371C78.6419 514.881 77.4721 514.532 76.4698 513.877C75.4676 513.22 74.6755 512.286 74.1894 511.187C74.0408 510.841 73.9603 510.468 73.9526 510.09C73.9526 509.373 74.2356 508.685 74.74 508.177C75.2438 507.67 75.9276 507.384 76.6403 507.384H91.2509C93.4294 509.578 94.0925 512.641 92.7664 514.882Z" fill="#D7E8F0"/>
<path opacity="0.21" d="M92.7663 514.884C92.7053 515.032 92.6236 515.17 92.5235 515.295C90.6706 517.882 86.6035 518.108 83.4778 515.814C83.0983 515.53 82.7401 515.219 82.4063 514.884C80.2455 512.696 79.5824 509.627 80.8789 507.386C80.9488 507.24 81.034 507.102 81.1335 506.975C83.0042 504.406 87.0535 504.168 90.197 506.48C90.5693 506.756 90.9216 507.059 91.2507 507.386C93.4293 509.579 94.0923 512.643 92.7663 514.884Z" fill="white"/>
<path opacity="0.21" d="M101.913 531.302H85.467C84.2718 531.3 83.1032 530.95 82.1009 530.295C81.0992 529.639 80.3065 528.706 79.8193 527.607C79.6707 527.267 79.5902 526.9 79.5825 526.528C79.5855 525.807 79.8714 525.116 80.3782 524.606C80.8849 524.096 81.5716 523.808 82.288 523.805H100.385C99.0889 526.046 99.752 529.115 101.913 531.302Z" fill="#F13F3F"/>
<path opacity="0.21" d="M204.832 528.614C204.831 528.969 204.761 529.32 204.625 529.646C204.49 529.973 204.292 530.27 204.042 530.52C203.792 530.77 203.496 530.967 203.171 531.102C202.845 531.236 202.496 531.304 202.144 531.302H101.913C99.752 529.115 99.089 526.046 100.385 523.805H198.942C200.14 523.805 201.313 524.156 202.316 524.817C203.319 525.478 204.109 526.418 204.589 527.524C204.743 527.867 204.826 528.238 204.832 528.614Z" fill="#D7E8F0"/>
<path opacity="0.21" d="M112.291 531.304C112.217 531.448 112.13 531.586 112.03 531.715C110.177 534.301 106.11 534.528 102.984 532.233C102.605 531.95 102.247 531.64 101.913 531.304C99.752 529.116 99.089 526.047 100.385 523.806C100.455 523.66 100.541 523.522 100.64 523.395C102.511 520.826 106.56 520.605 109.704 522.9C110.076 523.176 110.428 523.479 110.757 523.806C112.936 525.999 113.599 529.08 112.291 531.304Z" fill="white"/>
</g>
</svg>
